<?xml version="1.0" encoding="utf-8"?>
<!-- Generator: Adobe Illustrator 22.0.1, SVG Export Plug-In . SVG Version: 6.00 Build 0)  -->
<svg version="1.1" id="Layer_1" xmlns="http://www.w3.org/2000/svg" xmlns:xlink="http://www.w3.org/1999/xlink" x="0px" y="0px"
	 viewBox="0 0 270 360" style="enable-background:new 0 0 270 360;" xml:space="preserve">
<style type="text/css">
	.st0{fill:#D7D8AF;}
	.st1{fill:#000B28;}
	.st2{fill:#FFFFFF;}
	.st3{fill:#FF5915;}
	.st4{fill:#A82F05;}
	.st5{fill:#D46300;}
	.st6{enable-background:new    ;}
	.st7{fill:#003306;}
	.st8{fill:#006A0F;}
</style>
<path class="st0" d="M52.6,104.8l0.6-11.3l17.5-16.3l7.3,7.3l23.7-24.2l7.3,2.3l6.2-4.5l3.9-3.4l5.6,3.4l13.5,11.3l9,5.6l11.3,2.3
	l10.1,5.6l10.7-4.5l12.4,10.1l4.5,3.4l3.9,6.2l17.5,23.7c0,0-42.3,14.1-44.5,13.5s-74.9-3.9-78.9-5.6
	C90.4,127.9,52.6,104.8,52.6,104.8z"/>
<path class="st1" d="M43.3,102.9l9.6-9l15.8,11.3l19.2-9.6l3.1-2.5l18,5.6L123,85.1l26.5,13c0,0,16.1,6.5,17.2,7s10.7,2.3,10.7,2.3
	l9.3-9.3l20.3,9l11.3,14.6l0.3,31.8H43.3V102.9z"/>
<path class="st2" d="M39.4,111.6c-0.8,0-1.6-0.3-2.2-0.9c-1.2-1.2-1.3-3.2-0.1-4.4C38,105.5,57.7,85.2,58.9,84
	c1.2-1.2,8.9-7.8,9.7-8.6c1.2-1,3-1,4.1,0.1l4.6,4.2c4.8-4.8,14.9-14.8,16.8-16.2c1.4-1,3.8-4,5-5.6c0.9-1.1,2.4-1.6,3.7-1l3.8,1.6
	l1.6,0.5l2.1-1.7c0.1-0.1,0.3-0.2,0.4-0.3l2.5-1.5l3.7-3.7c1-1,2.6-1.2,3.9-0.4l6.2,3.9c0.2,0.1,0.4,0.3,0.6,0.5
	c0,0,4.3,4.5,6.9,6.4c2,1.5,8.8,5.9,9.8,6.5l5.1,2.5L159,73c0.4,0.1,0.8,0.2,1.2,0.5l5,3.3l4.1,2.5L178,75c1.1-0.6,2.5-0.4,3.4,0.4
	c0.9,0.8,8.6,7.4,10.3,9.2c1,1,4,3.1,5.6,4.1c0.3,0.2,0.6,0.5,0.9,0.8l11,14.9c1,1.4,0.7,3.3-0.7,4.3c-1.4,1-3.3,0.7-4.3-0.7
	l-10.6-14.5c-1.3-0.8-4.7-3-6.2-4.6c-1.1-1.1-5.6-5-8.4-7.5l-8.3,4.1c-0.9,0.5-2.1,0.4-3-0.1l-5.6-3.4c0,0-0.1-0.1-0.1-0.1l-4.5-3
	l-9.5-1.6c-0.3-0.1-0.6-0.1-0.9-0.3l-5.6-2.8c-0.1,0-0.2-0.1-0.3-0.2c-0.3-0.2-8-5.2-10.3-6.9c-2.7-2-6.4-5.8-7.4-6.8l-3.8-2.4
	l-2.2,2.2c-0.2,0.2-0.4,0.3-0.6,0.5l-2.6,1.6l-3.2,2.7c-0.8,0.7-1.9,0.9-3,0.6l-3.4-1.1c-0.1,0-0.2-0.1-0.2-0.1l-1.8-0.8
	c-1.3,1.6-3.2,3.7-4.7,4.9c-1.5,1.1-12,11.5-18.3,17.7c-1.2,1.2-3.1,1.2-4.3,0.1l-4.7-4.3c-3.1,2.7-6.7,5.9-7.3,6.5
	c-1.1,1.1-21.5,22-21.7,22.2C41,111.3,40.2,111.6,39.4,111.6z"/>
<path class="st2" d="M112.3,114.1c-0.4,0-0.7-0.1-1.1-0.2l-9-3.4c-0.5-0.2-1-0.6-1.4-1c-3.3-4.3-8.7-11.3-9.8-12.6
	c-0.6-0.4-2.6-1.6-4-2.4c-3.8-2.3-4.6-2.8-5.1-3.2c-0.5-0.5-3.7-2.8-6.4-4.8c-1.4-1-1.7-2.9-0.7-4.3c1-1.4,2.9-1.7,4.3-0.7
	c5.3,3.8,6.6,4.9,7,5.2c0.5,0.4,2.6,1.6,4.1,2.5c4,2.4,4.6,2.8,5.1,3.3c0.5,0.5,3.8,4.7,9.9,12.6l8.2,3.1c1.6,0.6,2.4,2.4,1.8,4
	C114.8,113.4,113.6,114.1,112.3,114.1z M82,91.2C82,91.3,82,91.3,82,91.2C82,91.3,82,91.3,82,91.2z M86.2,86.8
	c0.1,0,0.1,0.1,0.1,0.1C86.3,86.8,86.3,86.8,86.2,86.8z"/>
<path class="st2" d="M132.6,113c-1.7,0-3.1-1.4-3.1-3.1c0-1.4,0.3-1.9,5.1-7.2c2.2-2.4,4.5-4.8,4.8-5.2c1-1,2.1-1.2,6-1.7
	c0.9-0.1,2-0.3,2.8-0.4c1.2-1.2,3.4-3.1,7.9-6.6c0,0,0,0,0.1,0l11.3-8.5c1.4-1,3.3-0.7,4.3,0.6c1,1.4,0.7,3.3-0.6,4.3l-11.2,8.4
	c-2.8,2.2-6,4.9-7,5.8c-0.8,1.5-2.7,1.8-3.5,2c-0.9,0.2-2,0.3-3.1,0.5c-0.9,0.1-2.2,0.3-2.9,0.4c-1.8,1.9-6.9,7.5-7.9,8.8
	C134.9,112.3,133.8,113,132.6,113z"/>
<rect x="202.5" y="143.7" class="st3" width="5.6" height="14.6"/>
<rect x="224.5" y="143.7" class="st4" width="5.6" height="14.6"/>
<rect x="181.6" y="143.7" class="st4" width="5.6" height="14.6"/>
<rect x="157.4" y="143.7" class="st3" width="5.6" height="14.6"/>
<rect x="104.4" y="143.7" class="st3" width="5.6" height="14.6"/>
<rect x="44.7" y="143.7" class="st3" width="5.6" height="14.6"/>
<rect x="27.3" y="143.7" class="st4" width="5.6" height="14.6"/>
<rect x="74.6" y="143.7" class="st4" width="5.6" height="14.6"/>
<g>
	<g>
		<path class="st5" d="M37.8,26.5c6.2-2.8,15.9-3.8,21.1-5.5c1.7-0.6,3.1-1.3,4.5-3c0.1,0,0.1,0,0.2,0.1c-3,6.8-6.4,9.5-10,10.8
			c-1.5,0.5-3,0.8-4.6,1c-1.2,0.9-2,3.1-2.5,6.3c-0.7,4.8-1.4,9.7-2.1,14.5c-0.6,4.3-0.1,5.5,3,4.3c0,0.1,0,0.2-0.1,0.3
			c-5.1,2-10.1,4.1-15.1,6.5c0-0.1,0-0.2,0.1-0.3c3.8-1.8,4.2-4.1,4.9-8.8c0.6-4.1,1.1-8.1,1.7-12.2c0.7-5.1,6.5-9.1,9.7-10.5
			c-6.1,0.6-12.8-0.3-17.7,2c-2.4,1.2-3.9,2.9-3.9,4.9s1.5,2.3,3,1.5c1.2-0.6,2.4-1.7,3.2-3.1c1.5,0.1,2.1,0.9,2.1,2.1
			c0,2.9-2.4,5.6-4.8,6.8c-2.5,1.2-5.2,0.8-5.4-2.8C25.1,34.4,31.8,29.1,37.8,26.5z"/>
		<path class="st5" d="M63,22.3c0.1-0.8-0.5-1.2-1.6-0.5c-0.1,0-0.1-0.1-0.1-0.1c1.4-1.1,4-2.8,5.8-3.3c2.2-0.6,3-0.1,2.5,2.7
			c-1.2,6.5-2.4,13-3.5,19.5c0.1,0,0.1,0,0.2,0c2.5-10.5,6.4-13.9,9.9-14.8c4.8-1.2,4.5,2.9,4.1,5.6c-0.3,1.9-0.6,3.8-0.9,5.6
			c-0.6,3.4-0.9,7.8,0.8,8.1c-0.1,0.1-0.1,0.1-0.1,0.2C75.8,47.2,71,48,72,41.5c0.5-3.3,1-6.6,1.5-9.9c0.3-1.9,0.3-3-0.7-2.8
			c-2.1,0.6-4.8,5.7-6.2,11.8c-0.7,2.8-1.7,7.9-0.4,8.2c-0.1,0.1-0.1,0.1-0.1,0.2c-5.2,2.3-7.8,2.9-6.8-3.6
			C60.5,37.7,61.7,30,63,22.3z"/>
		<path class="st5" d="M102.5,32.9c-0.6,3.4-1,7.7,0.8,8.1c-0.1,0.1-0.1,0.1-0.1,0.2c-0.9,0.3-1.9,0.5-2.8,0.6
			c-3.3,0.5-6.3-0.4-5.1-5.4c0.5-2,1-4.1,1.5-6.1c-0.1,0-0.1,0-0.2,0c-2.5,10-5.5,13-9,13.7c-4.1,0.8-5.5-2.4-5.5-5.9
			c0-6.1,5.5-14.8,12.7-16c3.9-0.6,6.9,2.3,9.8-1.2C103.9,24.9,103.2,28.9,102.5,32.9z M89.2,38.6c0,1.6,0.3,3,1.4,2.8
			c2.4-0.5,5-6.8,6-12.6c0.2-0.8,0.3-1.6,0.5-2.4c0.6-3.2,0.3-4.4-1.6-4.1C92,22.8,89.2,32.3,89.2,38.6z"/>
		<path class="st5" d="M108.4,22.9c0.1-0.8-0.5-1.3-1.6-0.8c-0.1-0.1-0.1-0.1-0.1-0.1c1.4-0.8,4.1-1.9,6-2.1
			c2.3-0.2,3.2,0.6,2.6,3.2c-0.7,2.9-1.5,5.9-2.1,8.8c0.1,0,0.1,0,0.2,0c2.6-10,6.6-12.6,10.1-12.7c4.9-0.2,4.6,3.8,4.1,6.4
			c-0.3,1.8-0.6,3.7-1,5.5c-0.6,3.3-1,7.6,0.8,8.2c-0.1,0.1-0.1,0.1-0.1,0.1c-1,0.2-1.9,0.3-2.9,0.4c-3.3,0.1-6-1.1-5.2-6
			c0.5-3.2,1.1-6.4,1.6-9.6c0.3-1.8,0.3-2.9-0.7-2.9c-2.2,0.1-4.9,4.7-6.4,10.5c-0.7,2.8-1.7,7.6-0.5,8.2c-0.1,0.1-0.1,0.1-0.1,0.1
			c-1.2,0.3-2.4,0.5-3.3,0.6c-3.1,0.3-4.5-0.8-3.7-5.6C107,31,107.7,26.9,108.4,22.9z"/>
		<path class="st5" d="M138.3,29.2c2.7-1,6.3-3,6.3-6.5c0-1-0.3-1.5-1-1.5c-2.1-0.1-4.8,4.1-6.4,9.9c-0.7,2.6-1.7,7.4-0.5,8.1
			c-0.1,0.1-0.1,0.1-0.1,0.1c-1.2,0.2-2.4,0.3-3.3,0.3c-3.1,0-4.5-1.2-3.7-6c1.2-7.3,2.5-14.6,3.7-22c0.1-0.8-0.5-1.4-1.6-1
			c-0.1-0.1-0.1-0.1-0.1-0.1c1.4-0.7,4.1-1.5,6-1.5c2.3,0.1,3.1,0.9,2.6,3.5c-1.2,6.1-2.4,12.3-3.7,18.5c0.1,0,0.1,0,0.2,0.1
			c2.7-10,6.8-11.9,10.1-11.8c3.2,0.2,4.7,2,4.7,3.9c0,4.6-9,5.1-13,6c6.5-0.6,8.6,1,9.4,3.5c1.6,4.9,2.9,6.4,4.6,7.2
			c-0.1,0.1-0.1,0.1-0.1,0.1c-1.5,0.2-3,0.3-4.6,0.2c-3.2-0.2-6.3-1.4-7.4-5.8C139.6,31.4,139.5,29.4,138.3,29.2L138.3,29.2z"/>
		<path class="st5" d="M180.9,43.7c-0.8,5.1-4.8,7.9-12.3,6.8c-3.3-0.5-7.8-1.7-7.8-5.2c0-2.1,1.7-3.5,4-3.2
			c1.6,0.2,3.4,1.6,3.2,3.6c-1.5-0.1-2.2,0.8-2.2,1.9c0,1.1,0.8,2.3,3,2.6c3,0.5,4-1.6,4.7-5.1c1-4.6,1.9-9.2,2.8-13.8
			c-0.1,0-0.1-0.1-0.2-0.1c-2.6,9.4-5.2,11.2-9.4,10.6c-5.4-0.7-5.2-4.6-4.8-7.2c0.6-3.7,1.3-7.5,1.9-11.2c0.1-0.7-0.5-1.4-1.6-1.2
			c-0.1-0.1-0.1-0.1-0.1-0.1c1.4-0.5,4.1-1,6-0.7c2.3,0.3,3,1.2,2.6,3.8c-0.7,4-1.4,7.9-2,11.9c-0.3,1.7,0.1,2.9,1.2,3.1
			c2.4,0.3,4.3-3.7,5.7-9.2c0.7-2.5,1.7-7.3,0.5-8.2c0.1-0.1,0.1-0.1,0.1-0.1c5.3,0.6,7.8,1.2,6.9,7.3
			C182.3,34.6,181.6,39.1,180.9,43.7z"/>
		<path class="st5" d="M206.7,38.9c0,6.4-5.7,10.2-12.5,8.4c-5.5-1.4-9.4-5.8-9.4-10.9c0-6.5,5.7-10.8,12.6-8.9
			C202.9,29,206.7,33.8,206.7,38.9z M199.7,32.4c0-2.3-0.5-4.1-2.3-4.6c-4.2-1.1-5.5,10.6-5.5,14.6c0,2.3,0.6,4.1,2.3,4.5
			C198.4,47.6,199.7,36.9,199.7,32.4z"/>
		<path class="st5" d="M227.6,50.1c-0.6,3-0.9,7.2,0.7,8.6c-0.1,0-0.1,0.1-0.1,0.1c-0.8-0.2-1.7-0.5-2.6-0.8c-3.2-1.3-6-3.8-4.8-8.1
			c0.5-1.8,0.9-3.5,1.4-5.4c-0.1-0.1-0.1-0.1-0.2-0.1c-2.5,8.8-5,10.1-9,8.7c-5.2-1.8-5.1-5.6-4.7-8.2c0.6-3.6,1.2-7.2,1.9-10.8
			c0.1-0.7-0.5-1.5-1.6-1.5c-0.1-0.1-0.1-0.1-0.1-0.2c1.4-0.2,4-0.2,5.8,0.5c2.1,0.8,2.9,1.9,2.5,4.3c-0.7,3.8-1.3,7.7-2,11.5
			c-0.3,1.7,0.1,2.9,1.2,3.3c2.3,0.8,4.1-2.9,5.5-8c0.6-2.4,1.7-6.9,0.4-8.1c0.1,0,0.1-0.1,0.1-0.1c5.1,1.6,7.7,2.9,6.6,8.6
			C228.3,46.4,228,48.2,227.6,50.1z"/>
		<path class="st5" d="M238.8,59.6c0,2.3-2,3.2-4,2.3c-1.7-0.8-2.9-2.8-2.9-4.5c0-2.3,2-3.3,4-2.3C237.7,55.9,238.8,57.9,238.8,59.6
			z M242.5,43.1c0,4.5-5.1,5.5-6.1,10.4c-0.1-0.1-0.2-0.1-0.3-0.1c0.5-4.3-2.4-9.2-2.4-13c0-2.8,1.7-4.2,5.4-4.8
			C241.4,38.5,242.5,41.1,242.5,43.1z"/>
	</g>
</g>
<g class="st6">
	<path d="M27.8,185l4.6-8.8h3.4L29.3,188v7.5h-3.2v-7.4l-6.4-11.9h3.4L27.8,185z"/>
	<path d="M50.9,188.2c0,2.4-0.6,4.2-1.8,5.6c-1.2,1.3-2.9,2-5.1,2c-1.4,0-2.6-0.3-3.6-0.9c-1-0.6-1.9-1.5-2.4-2.7
		c-0.6-1.2-0.8-2.5-0.8-4c0-2.4,0.6-4.2,1.8-5.5c1.2-1.3,2.9-2,5.1-2c2.1,0,3.8,0.7,5,2C50.3,184.1,50.9,185.9,50.9,188.2z
		 M40.3,188.2c0,3.4,1.2,5.1,3.7,5.1c2.5,0,3.7-1.7,3.7-5.1c0-3.3-1.2-5-3.7-5c-1.3,0-2.2,0.4-2.8,1.3S40.3,186.6,40.3,188.2z"/>
	<path d="M64.8,195.5l-0.4-1.9h-0.2c-0.4,0.7-1,1.2-1.8,1.6c-0.8,0.4-1.7,0.6-2.7,0.6c-1.8,0-3.1-0.4-4-1.3s-1.3-2.2-1.3-4v-9.5h3.1
		v9c0,1.1,0.2,2,0.7,2.5c0.5,0.6,1.2,0.8,2.2,0.8c1.3,0,2.3-0.4,2.9-1.2s0.9-2.1,0.9-3.9v-7.3h3.1v14.6H64.8z"/>
	<path d="M79.1,180.7c0.6,0,1.1,0,1.5,0.1l-0.3,2.9c-0.4-0.1-0.9-0.2-1.4-0.2c-1.2,0-2.2,0.4-3,1.2c-0.8,0.8-1.2,1.9-1.2,3.2v7.6
		h-3.1v-14.6h2.4l0.4,2.6h0.2c0.5-0.9,1.1-1.6,1.9-2.1C77.3,180.9,78.2,180.7,79.1,180.7z"/>
	<path d="M95.3,195.8c-1.8,0-3.2-0.7-4.3-2c-1-1.3-1.5-3.2-1.5-5.6c0-2.4,0.5-4.3,1.6-5.6s2.5-2,4.3-2c1.9,0,3.4,0.7,4.4,2.1h0.2
		c-0.1-1-0.2-1.9-0.2-2.5V175h3.1v20.5h-2.4l-0.5-1.9h-0.1C98.6,195.1,97.2,195.8,95.3,195.8z M96.1,193.3c1.3,0,2.2-0.4,2.8-1.1
		c0.6-0.7,0.9-1.9,0.9-3.5v-0.4c0-1.8-0.3-3.1-0.9-3.9s-1.5-1.2-2.8-1.2c-1.1,0-1.9,0.4-2.5,1.3s-0.9,2.1-0.9,3.8
		c0,1.6,0.3,2.9,0.9,3.7C94.1,192.9,94.9,193.3,96.1,193.3z"/>
	<path d="M120.1,188.2c0,2.4-0.6,4.2-1.8,5.6c-1.2,1.3-2.9,2-5.1,2c-1.4,0-2.6-0.3-3.6-0.9s-1.9-1.5-2.4-2.7c-0.6-1.2-0.8-2.5-0.8-4
		c0-2.4,0.6-4.2,1.8-5.5c1.2-1.3,2.9-2,5.1-2c2.1,0,3.8,0.7,5,2S120.1,185.9,120.1,188.2z M109.5,188.2c0,3.4,1.2,5.1,3.7,5.1
		c2.5,0,3.7-1.7,3.7-5.1c0-3.3-1.2-5-3.7-5c-1.3,0-2.2,0.4-2.8,1.3C109.8,185.3,109.5,186.6,109.5,188.2z"/>
	<path d="M136.5,195.5h-3.1v-9c0-1.1-0.2-2-0.7-2.5c-0.5-0.6-1.2-0.8-2.2-0.8c-1.3,0-2.3,0.4-2.9,1.2s-0.9,2.1-0.9,3.9v7.3h-3.1
		v-14.6h2.4l0.4,1.9h0.2c0.4-0.7,1.1-1.2,1.9-1.6s1.7-0.6,2.7-0.6c3.5,0,5.3,1.8,5.3,5.3V195.5z"/>
	<path d="M150,195.5l-0.6-2h-0.1c-0.7,0.9-1.4,1.5-2.1,1.8c-0.7,0.3-1.6,0.5-2.7,0.5c-1.4,0-2.6-0.4-3.4-1.2
		c-0.8-0.8-1.2-1.9-1.2-3.3c0-1.5,0.6-2.6,1.7-3.4c1.1-0.8,2.8-1.2,5.1-1.3l2.5-0.1v-0.8c0-0.9-0.2-1.6-0.7-2.1
		c-0.4-0.5-1.1-0.7-2-0.7c-0.7,0-1.5,0.1-2.2,0.3c-0.7,0.2-1.3,0.5-2,0.8l-1-2.2c0.8-0.4,1.7-0.7,2.6-0.9s1.8-0.3,2.7-0.3
		c1.9,0,3.3,0.4,4.2,1.2c0.9,0.8,1.4,2.1,1.4,3.8v9.8H150z M145.4,193.4c1.1,0,2-0.3,2.7-0.9c0.7-0.6,1-1.5,1-2.6v-1.3l-1.9,0.1
		c-1.5,0.1-2.5,0.3-3.2,0.7c-0.7,0.4-1,1.1-1,2c0,0.7,0.2,1.2,0.6,1.5C144,193.2,144.6,193.4,145.4,193.4z"/>
	<path d="M162,193.3c0.8,0,1.5-0.1,2.3-0.4v2.3c-0.3,0.1-0.8,0.3-1.3,0.4c-0.5,0.1-1.1,0.2-1.7,0.2c-2.9,0-4.4-1.5-4.4-4.6v-7.9h-2
		v-1.4l2.1-1.1l1.1-3.1h1.9v3.2h4.2v2.4H160v7.8c0,0.7,0.2,1.3,0.6,1.7C160.9,193.1,161.4,193.3,162,193.3z"/>
	<path d="M167,177.1c0-0.6,0.2-1,0.5-1.3c0.3-0.3,0.7-0.4,1.3-0.4c0.5,0,1,0.1,1.3,0.4c0.3,0.3,0.5,0.7,0.5,1.3
		c0,0.5-0.2,0.9-0.5,1.2c-0.3,0.3-0.7,0.5-1.3,0.5c-0.6,0-1-0.2-1.3-0.5C167.1,178,167,177.6,167,177.1z M170.3,195.5h-3.1v-14.6
		h3.1V195.5z"/>
	<path d="M187.7,188.2c0,2.4-0.6,4.2-1.8,5.6c-1.2,1.3-2.9,2-5.1,2c-1.4,0-2.6-0.3-3.6-0.9c-1-0.6-1.9-1.5-2.4-2.7
		c-0.6-1.2-0.8-2.5-0.8-4c0-2.4,0.6-4.2,1.8-5.5c1.2-1.3,2.9-2,5.1-2c2.1,0,3.8,0.7,5,2C187.1,184.1,187.7,185.9,187.7,188.2z
		 M177,188.2c0,3.4,1.2,5.1,3.7,5.1c2.5,0,3.7-1.7,3.7-5.1c0-3.3-1.2-5-3.7-5c-1.3,0-2.2,0.4-2.8,1.3S177,186.6,177,188.2z"/>
	<path d="M204.1,195.5H201v-9c0-1.1-0.2-2-0.7-2.5s-1.2-0.8-2.2-0.8c-1.3,0-2.3,0.4-2.9,1.2c-0.6,0.8-0.9,2.1-0.9,3.9v7.3h-3.1
		v-14.6h2.4l0.4,1.9h0.2c0.4-0.7,1.1-1.2,1.9-1.6s1.7-0.6,2.7-0.6c3.5,0,5.3,1.8,5.3,5.3V195.5z"/>
	<path d="M213.9,202c-0.9,0-1.7-0.1-2.3-0.3v-2.5c0.6,0.2,1.2,0.2,1.8,0.2c1.3,0,2-0.7,2-2.2v-16.3h3.1v16.5c0,1.5-0.4,2.6-1.2,3.4
		C216.6,201.6,215.4,202,213.9,202z M215.2,177.1c0-0.6,0.2-1,0.5-1.3c0.3-0.3,0.7-0.4,1.3-0.4c0.5,0,1,0.1,1.3,0.4
		c0.3,0.3,0.5,0.7,0.5,1.3c0,0.5-0.2,0.9-0.5,1.2c-0.3,0.3-0.7,0.5-1.3,0.5c-0.6,0-1-0.2-1.3-0.5C215.4,178,215.2,177.6,215.2,177.1
		z"/>
	<path d="M233.3,195.5l-0.4-1.9h-0.2c-0.4,0.7-1,1.2-1.8,1.6s-1.7,0.6-2.7,0.6c-1.8,0-3.1-0.4-4-1.3s-1.3-2.2-1.3-4v-9.5h3.1v9
		c0,1.1,0.2,2,0.7,2.5c0.5,0.6,1.2,0.8,2.2,0.8c1.3,0,2.3-0.4,2.9-1.2c0.6-0.8,0.9-2.1,0.9-3.9v-7.3h3.1v14.6H233.3z"/>
	<path d="M249.9,191.4c0,1.4-0.5,2.5-1.6,3.3c-1,0.8-2.5,1.1-4.5,1.1c-1.9,0-3.5-0.3-4.7-0.9v-2.7c1.7,0.8,3.3,1.2,4.8,1.2
		c1.9,0,2.9-0.6,2.9-1.7c0-0.4-0.1-0.7-0.3-0.9s-0.6-0.5-1-0.8s-1.2-0.6-2-0.9c-1.7-0.7-2.8-1.3-3.4-2s-0.9-1.5-0.9-2.5
		c0-1.2,0.5-2.2,1.5-2.9c1-0.7,2.4-1,4.1-1c1.7,0,3.3,0.3,4.9,1l-1,2.3c-1.6-0.7-2.9-1-4-1c-1.6,0-2.5,0.5-2.5,1.4
		c0,0.5,0.2,0.8,0.6,1.2s1.4,0.8,2.8,1.3c1.2,0.5,2.1,0.9,2.6,1.3c0.5,0.4,1,0.8,1.2,1.3C249.8,190.1,249.9,190.7,249.9,191.4z"/>
	<path d="M258.7,193.3c0.8,0,1.5-0.1,2.3-0.4v2.3c-0.3,0.1-0.8,0.3-1.3,0.4c-0.5,0.1-1.1,0.2-1.7,0.2c-2.9,0-4.4-1.5-4.4-4.6v-7.9
		h-2v-1.4l2.1-1.1l1.1-3.1h1.9v3.2h4.2v2.4h-4.2v7.8c0,0.7,0.2,1.3,0.6,1.7S258.1,193.3,258.7,193.3z"/>
</g>
<g class="st6">
	<path d="M52.4,219.9h-3.6v12.3h-3.1v-12.3h-2.4v-1.5l2.4-1v-1c0-1.7,0.4-3,1.2-3.8c0.8-0.8,2-1.2,3.7-1.2c1.1,0,2.2,0.2,3.2,0.5
		l-0.8,2.4c-0.8-0.2-1.5-0.4-2.2-0.4c-0.7,0-1.2,0.2-1.5,0.7c-0.3,0.4-0.5,1.1-0.5,2v1h3.6V219.9z"/>
	<path d="M65.2,232.1l-0.4-1.9h-0.2c-0.4,0.7-1,1.2-1.8,1.6s-1.7,0.6-2.7,0.6c-1.8,0-3.1-0.4-4-1.3c-0.9-0.9-1.3-2.2-1.3-4v-9.5h3.1
		v9c0,1.1,0.2,2,0.7,2.5c0.5,0.6,1.2,0.8,2.2,0.8c1.3,0,2.3-0.4,2.9-1.2c0.6-0.8,0.9-2.1,0.9-3.9v-7.3h3.1v14.6H65.2z"/>
	<path d="M84.9,232.1h-3.1v-9c0-1.1-0.2-2-0.7-2.5c-0.5-0.6-1.2-0.8-2.2-0.8c-1.3,0-2.3,0.4-2.9,1.2c-0.6,0.8-0.9,2.1-0.9,3.9v7.3
		h-3.1v-14.6h2.4l0.4,1.9h0.2c0.4-0.7,1.1-1.2,1.9-1.6s1.7-0.6,2.7-0.6c3.5,0,5.3,1.8,5.3,5.3V232.1z"/>
	<path d="M94.2,232.4c-1.8,0-3.2-0.7-4.3-2s-1.5-3.2-1.5-5.6c0-2.4,0.5-4.3,1.6-5.6c1-1.3,2.5-2,4.3-2c1.9,0,3.4,0.7,4.4,2.1h0.2
		c-0.1-1-0.2-1.9-0.2-2.5v-5.3h3.1v20.5h-2.4l-0.5-1.9h-0.1C97.6,231.7,96.1,232.4,94.2,232.4z M95,229.9c1.3,0,2.2-0.4,2.8-1.1
		c0.6-0.7,0.9-1.9,0.9-3.5v-0.4c0-1.8-0.3-3.1-0.9-3.9c-0.6-0.8-1.5-1.2-2.8-1.2c-1.1,0-1.9,0.4-2.5,1.3c-0.6,0.9-0.9,2.1-0.9,3.8
		c0,1.6,0.3,2.9,0.9,3.7S93.9,229.9,95,229.9z"/>
	<path d="M112.5,232.4c-2.3,0-4-0.7-5.3-2c-1.3-1.3-1.9-3.1-1.9-5.5c0-2.4,0.6-4.3,1.8-5.6c1.2-1.4,2.8-2,4.9-2
		c1.9,0,3.5,0.6,4.6,1.8s1.7,2.8,1.7,4.8v1.7h-9.7c0,1.4,0.4,2.5,1.1,3.3c0.7,0.8,1.7,1.1,3,1.1c0.9,0,1.7-0.1,2.4-0.2
		c0.7-0.2,1.5-0.4,2.4-0.8v2.5c-0.8,0.4-1.5,0.6-2.3,0.8C114.4,232.3,113.5,232.4,112.5,232.4z M111.9,219.6c-1,0-1.8,0.3-2.4,0.9
		c-0.6,0.6-0.9,1.5-1.1,2.7h6.6c0-1.2-0.3-2.1-0.9-2.7S112.9,219.6,111.9,219.6z"/>
	<path d="M126.6,232.4c-1.8,0-3.2-0.7-4.3-2c-1-1.3-1.5-3.2-1.5-5.6c0-2.4,0.5-4.3,1.6-5.6c1-1.3,2.5-2,4.3-2c1.9,0,3.4,0.7,4.4,2.1
		h0.2c-0.1-1-0.2-1.9-0.2-2.5v-5.3h3.1v20.5h-2.4l-0.5-1.9H131C130,231.7,128.5,232.4,126.6,232.4z M127.4,229.9
		c1.3,0,2.2-0.4,2.8-1.1c0.6-0.7,0.9-1.9,0.9-3.5v-0.4c0-1.8-0.3-3.1-0.9-3.9c-0.6-0.8-1.5-1.2-2.8-1.2c-1.1,0-1.9,0.4-2.5,1.3
		c-0.6,0.9-0.9,2.1-0.9,3.8c0,1.6,0.3,2.9,0.9,3.7S126.3,229.9,127.4,229.9z"/>
	<path d="M157.6,232.1h-13.1v-2.4l5-5c1.5-1.5,2.4-2.6,2.9-3.2c0.5-0.6,0.8-1.2,1-1.8c0.2-0.6,0.3-1.1,0.3-1.8
		c0-0.9-0.3-1.6-0.8-2.1c-0.5-0.5-1.2-0.8-2.2-0.8c-0.7,0-1.5,0.1-2.1,0.4c-0.7,0.3-1.5,0.8-2.4,1.5l-1.7-2c1.1-0.9,2.1-1.5,3.1-1.9
		c1-0.4,2.1-0.6,3.2-0.6c1.8,0,3.2,0.5,4.3,1.4c1.1,0.9,1.6,2.2,1.6,3.8c0,0.9-0.2,1.7-0.5,2.5c-0.3,0.8-0.8,1.6-1.4,2.4
		c-0.6,0.8-1.7,2-3.2,3.4l-3.4,3.2v0.1h9.2V232.1z"/>
	<path d="M165.8,217.5h3.4l3,8.3c0.4,1.2,0.7,2.3,0.9,3.3h0.1c0.1-0.5,0.2-1.1,0.4-1.8c0.2-0.7,1.3-4,3.4-9.8h3.4l-6.2,16.5
		c-1.1,3-3,4.6-5.7,4.6c-0.7,0-1.4-0.1-2-0.2V236c0.5,0.1,1,0.2,1.6,0.2c1.5,0,2.5-0.9,3.2-2.6l0.5-1.4L165.8,217.5z"/>
	<path d="M188.9,232.4c-2.3,0-4-0.7-5.3-2c-1.3-1.3-1.9-3.1-1.9-5.5c0-2.4,0.6-4.3,1.8-5.6c1.2-1.4,2.8-2,4.9-2
		c1.9,0,3.5,0.6,4.6,1.8c1.1,1.2,1.7,2.8,1.7,4.8v1.7h-9.7c0,1.4,0.4,2.5,1.1,3.3c0.7,0.8,1.7,1.1,3,1.1c0.9,0,1.7-0.1,2.4-0.2
		c0.7-0.2,1.5-0.4,2.4-0.8v2.5c-0.8,0.4-1.5,0.6-2.3,0.8C190.8,232.3,189.9,232.4,188.9,232.4z M188.3,219.6c-1,0-1.8,0.3-2.4,0.9
		c-0.6,0.6-0.9,1.5-1.1,2.7h6.6c0-1.2-0.3-2.1-0.9-2.7S189.3,219.6,188.3,219.6z"/>
	<path d="M207.2,232.1l-0.6-2h-0.1c-0.7,0.9-1.4,1.5-2.1,1.8c-0.7,0.3-1.6,0.5-2.7,0.5c-1.4,0-2.6-0.4-3.4-1.2
		c-0.8-0.8-1.2-1.9-1.2-3.3c0-1.5,0.6-2.6,1.7-3.4s2.8-1.2,5.1-1.3l2.5-0.1v-0.8c0-0.9-0.2-1.6-0.7-2.1c-0.4-0.5-1.1-0.7-2-0.7
		c-0.7,0-1.5,0.1-2.2,0.3c-0.7,0.2-1.3,0.5-2,0.8l-1-2.2c0.8-0.4,1.7-0.7,2.6-0.9s1.8-0.3,2.7-0.3c1.9,0,3.3,0.4,4.2,1.2
		c0.9,0.8,1.4,2.1,1.4,3.8v9.8H207.2z M202.6,230c1.1,0,2-0.3,2.7-0.9c0.7-0.6,1-1.5,1-2.6v-1.3l-1.9,0.1c-1.5,0.1-2.5,0.3-3.2,0.7
		c-0.7,0.4-1,1.1-1,2c0,0.7,0.2,1.2,0.6,1.5S201.8,230,202.6,230z"/>
	<path d="M221.2,217.3c0.6,0,1.1,0,1.5,0.1l-0.3,2.9c-0.4-0.1-0.9-0.2-1.4-0.2c-1.2,0-2.2,0.4-3,1.2c-0.8,0.8-1.2,1.9-1.2,3.2v7.6
		h-3.1v-14.6h2.4l0.4,2.6h0.2c0.5-0.9,1.1-1.6,1.9-2.1S220.3,217.3,221.2,217.3z"/>
	<path d="M235.2,228c0,1.4-0.5,2.5-1.6,3.3c-1,0.8-2.5,1.1-4.5,1.1c-1.9,0-3.5-0.3-4.7-0.9v-2.7c1.7,0.8,3.3,1.2,4.8,1.2
		c1.9,0,2.9-0.6,2.9-1.7c0-0.4-0.1-0.7-0.3-0.9s-0.6-0.5-1-0.8c-0.5-0.3-1.2-0.6-2-0.9c-1.7-0.7-2.8-1.3-3.4-2
		c-0.6-0.7-0.9-1.5-0.9-2.5c0-1.2,0.5-2.2,1.5-2.9c1-0.7,2.4-1,4.1-1c1.7,0,3.3,0.3,4.9,1l-1,2.3c-1.6-0.7-2.9-1-4-1
		c-1.6,0-2.5,0.5-2.5,1.4c0,0.5,0.2,0.8,0.6,1.2s1.4,0.8,2.8,1.3c1.2,0.5,2.1,0.9,2.6,1.3c0.5,0.4,1,0.8,1.2,1.3
		C235.1,226.7,235.2,227.3,235.2,228z"/>
</g>
<g class="st6">
	<path d="M78.8,261.4c0,2.4-0.6,4.2-1.8,5.6s-2.9,2-5.1,2c-1.4,0-2.6-0.3-3.6-0.9s-1.9-1.5-2.4-2.7c-0.6-1.2-0.8-2.5-0.8-4
		c0-2.4,0.6-4.2,1.8-5.5c1.2-1.3,2.9-2,5.1-2c2.1,0,3.8,0.7,5,2S78.8,259.1,78.8,261.4z M68.2,261.4c0,3.4,1.2,5.1,3.7,5.1
		c2.5,0,3.7-1.7,3.7-5.1c0-3.3-1.2-5-3.7-5c-1.3,0-2.2,0.4-2.8,1.3C68.5,258.6,68.2,259.8,68.2,261.4z"/>
	<path d="M89.7,256.5h-3.6v12.3H83v-12.3h-2.4v-1.5l2.4-1v-1c0-1.7,0.4-3,1.2-3.8c0.8-0.8,2-1.2,3.7-1.2c1.1,0,2.2,0.2,3.2,0.5
		l-0.8,2.4c-0.8-0.2-1.5-0.4-2.2-0.4c-0.7,0-1.2,0.2-1.5,0.7c-0.3,0.4-0.5,1.1-0.5,2v1h3.6V256.5z"/>
	<path d="M110.7,263.5c0,1.7-0.6,3.1-1.9,4c-1.2,1-3,1.5-5.1,1.5c-2.2,0-4-0.3-5.4-1v-3c0.9,0.4,1.8,0.7,2.8,1
		c1,0.2,1.9,0.4,2.8,0.4c1.2,0,2.2-0.2,2.8-0.7s0.9-1.1,0.9-1.9c0-0.7-0.3-1.3-0.8-1.8c-0.5-0.5-1.7-1.1-3.4-1.8
		c-1.8-0.7-3-1.5-3.7-2.4c-0.7-0.9-1.1-2-1.1-3.3c0-1.6,0.6-2.9,1.7-3.8c1.1-0.9,2.7-1.4,4.6-1.4c1.8,0,3.7,0.4,5.5,1.2l-1,2.6
		c-1.7-0.7-3.2-1.1-4.6-1.1c-1,0-1.8,0.2-2.3,0.7s-0.8,1-0.8,1.8c0,0.5,0.1,0.9,0.3,1.3s0.6,0.7,1,1c0.5,0.3,1.4,0.7,2.6,1.3
		c1.4,0.6,2.5,1.1,3.1,1.7s1.1,1.1,1.5,1.7C110.5,261.9,110.7,262.6,110.7,263.5z"/>
	<path d="M123.2,268.8l-0.6-2h-0.1c-0.7,0.9-1.4,1.5-2.1,1.8c-0.7,0.3-1.6,0.5-2.7,0.5c-1.4,0-2.6-0.4-3.4-1.2
		c-0.8-0.8-1.2-1.9-1.2-3.3c0-1.5,0.6-2.6,1.7-3.4c1.1-0.8,2.8-1.2,5.1-1.3l2.5-0.1v-0.8c0-0.9-0.2-1.6-0.7-2.1
		c-0.4-0.5-1.1-0.7-2-0.7c-0.7,0-1.5,0.1-2.2,0.3c-0.7,0.2-1.3,0.5-2,0.8l-1-2.2c0.8-0.4,1.7-0.7,2.6-0.9c0.9-0.2,1.8-0.3,2.7-0.3
		c1.9,0,3.3,0.4,4.2,1.2c0.9,0.8,1.4,2.1,1.4,3.8v9.8H123.2z M118.6,266.6c1.1,0,2-0.3,2.7-0.9c0.7-0.6,1-1.5,1-2.6v-1.3l-1.9,0.1
		c-1.5,0.1-2.5,0.3-3.2,0.7c-0.7,0.4-1,1.1-1,2c0,0.7,0.2,1.2,0.6,1.5C117.2,266.5,117.8,266.6,118.6,266.6z"/>
	<path d="M135.2,266.5c0.8,0,1.5-0.1,2.3-0.4v2.3c-0.3,0.1-0.8,0.3-1.3,0.4s-1.1,0.2-1.7,0.2c-2.9,0-4.4-1.5-4.4-4.6v-7.9h-2v-1.4
		l2.1-1.1l1.1-3.1h1.9v3.2h4.2v2.4h-4.2v7.8c0,0.7,0.2,1.3,0.6,1.7C134.1,266.3,134.6,266.5,135.2,266.5z"/>
	<path d="M150.7,268.8l-0.4-1.9h-0.2c-0.4,0.7-1,1.2-1.8,1.6s-1.7,0.6-2.7,0.6c-1.8,0-3.1-0.4-4-1.3s-1.3-2.2-1.3-4v-9.5h3.1v9
		c0,1.1,0.2,2,0.7,2.5c0.5,0.6,1.2,0.8,2.2,0.8c1.3,0,2.3-0.4,2.9-1.2c0.6-0.8,0.9-2.1,0.9-3.9v-7.3h3.1v14.6H150.7z"/>
	<path d="M165,253.9c0.6,0,1.1,0,1.5,0.1l-0.3,2.9c-0.4-0.1-0.9-0.2-1.4-0.2c-1.2,0-2.2,0.4-3,1.2c-0.8,0.8-1.2,1.9-1.2,3.2v7.6
		h-3.1v-14.6h2.4l0.4,2.6h0.2c0.5-0.9,1.1-1.6,1.9-2.1C163.2,254.1,164.1,253.9,165,253.9z"/>
	<path d="M174.1,269c-1.8,0-3.2-0.7-4.3-2c-1-1.3-1.5-3.2-1.5-5.6c0-2.4,0.5-4.3,1.6-5.6c1-1.3,2.5-2,4.3-2c1.9,0,3.4,0.7,4.4,2.1
		h0.2c-0.1-1-0.2-1.9-0.2-2.5v-5.3h3.1v20.5h-2.4l-0.5-1.9h-0.1C177.5,268.3,176.1,269,174.1,269z M175,266.5c1.3,0,2.2-0.4,2.8-1.1
		s0.9-1.9,0.9-3.5v-0.4c0-1.8-0.3-3.1-0.9-3.9c-0.6-0.8-1.5-1.2-2.8-1.2c-1.1,0-1.9,0.4-2.5,1.3c-0.6,0.9-0.9,2.1-0.9,3.8
		c0,1.6,0.3,2.9,0.9,3.7C173,266.1,173.8,266.5,175,266.5z"/>
	<path d="M195.2,268.8l-0.6-2h-0.1c-0.7,0.9-1.4,1.5-2.1,1.8c-0.7,0.3-1.6,0.5-2.7,0.5c-1.4,0-2.6-0.4-3.4-1.2
		c-0.8-0.8-1.2-1.9-1.2-3.3c0-1.5,0.6-2.6,1.7-3.4c1.1-0.8,2.8-1.2,5.1-1.3l2.5-0.1v-0.8c0-0.9-0.2-1.6-0.7-2.1
		c-0.4-0.5-1.1-0.7-2-0.7c-0.7,0-1.5,0.1-2.2,0.3s-1.3,0.5-2,0.8l-1-2.2c0.8-0.4,1.7-0.7,2.6-0.9c0.9-0.2,1.8-0.3,2.7-0.3
		c1.9,0,3.3,0.4,4.2,1.2c0.9,0.8,1.4,2.1,1.4,3.8v9.8H195.2z M190.6,266.6c1.1,0,2-0.3,2.7-0.9s1-1.5,1-2.6v-1.3l-1.9,0.1
		c-1.5,0.1-2.5,0.3-3.2,0.7c-0.7,0.4-1,1.1-1,2c0,0.7,0.2,1.2,0.6,1.5C189.2,266.5,189.8,266.6,190.6,266.6z"/>
	<path d="M199.5,254.2h3.4l3,8.3c0.4,1.2,0.7,2.3,0.9,3.3h0.1c0.1-0.5,0.2-1.1,0.4-1.8c0.2-0.7,1.3-4,3.4-9.8h3.4l-6.2,16.5
		c-1.1,3-3,4.6-5.7,4.6c-0.7,0-1.4-0.1-2-0.2v-2.5c0.5,0.1,1,0.2,1.6,0.2c1.5,0,2.5-0.9,3.2-2.6l0.5-1.4L199.5,254.2z"/>
</g>
<g class="st6">
	<path d="M56.3,305.6c-2.2,0-3.9-0.6-5-1.9s-1.7-3.1-1.7-5.6c0-2.5,0.6-4.3,1.8-5.7c1.2-1.3,2.9-2,5.2-2c1.5,0,2.9,0.3,4.2,0.9
		l-0.9,2.5c-1.3-0.5-2.4-0.8-3.2-0.8c-2.5,0-3.8,1.7-3.8,5c0,1.6,0.3,2.9,0.9,3.7s1.6,1.2,2.8,1.2c1.4,0,2.7-0.3,3.9-1v2.7
		c-0.6,0.3-1.1,0.6-1.8,0.7C58,305.6,57.2,305.6,56.3,305.6z"/>
	<path d="M76.7,305.4h-3.1v-9c0-1.1-0.2-2-0.7-2.5c-0.5-0.6-1.2-0.8-2.2-0.8c-1.3,0-2.3,0.4-2.9,1.2c-0.6,0.8-0.9,2.1-0.9,3.9v7.2
		h-3.1v-20.5h3.1v5.2c0,0.8-0.1,1.7-0.2,2.7h0.2c0.4-0.7,1-1.2,1.8-1.6c0.8-0.4,1.6-0.6,2.6-0.6c3.5,0,5.3,1.8,5.3,5.3V305.4z"/>
	<path d="M90.1,305.4l-0.6-2h-0.1c-0.7,0.9-1.4,1.5-2.1,1.8c-0.7,0.3-1.6,0.5-2.7,0.5c-1.4,0-2.6-0.4-3.4-1.2
		c-0.8-0.8-1.2-1.9-1.2-3.3c0-1.5,0.6-2.6,1.7-3.4c1.1-0.8,2.8-1.2,5.1-1.3l2.5-0.1v-0.8c0-0.9-0.2-1.6-0.7-2.1
		c-0.4-0.5-1.1-0.7-2-0.7c-0.7,0-1.5,0.1-2.2,0.3c-0.7,0.2-1.3,0.5-2,0.8l-1-2.2c0.8-0.4,1.7-0.7,2.6-0.9c0.9-0.2,1.8-0.3,2.7-0.3
		c1.9,0,3.3,0.4,4.2,1.2c0.9,0.8,1.4,2.1,1.4,3.8v9.8H90.1z M85.5,303.3c1.1,0,2-0.3,2.7-0.9c0.7-0.6,1-1.5,1-2.6v-1.3l-1.9,0.1
		c-1.5,0.1-2.5,0.3-3.2,0.7s-1,1.1-1,2c0,0.7,0.2,1.2,0.6,1.5C84.1,303.1,84.7,303.3,85.5,303.3z"/>
	<path d="M99.8,305.4h-3.1v-20.5h3.1V305.4z"/>
	<path d="M107.3,305.4h-3.1v-20.5h3.1V305.4z"/>
	<path d="M118.1,305.6c-2.3,0-4-0.7-5.3-2c-1.3-1.3-1.9-3.1-1.9-5.5c0-2.4,0.6-4.3,1.8-5.6c1.2-1.4,2.8-2,4.9-2
		c1.9,0,3.5,0.6,4.6,1.8c1.1,1.2,1.7,2.8,1.7,4.8v1.7h-9.7c0,1.4,0.4,2.5,1.1,3.3s1.7,1.1,3,1.1c0.9,0,1.7-0.1,2.4-0.2
		c0.7-0.2,1.5-0.4,2.4-0.8v2.5c-0.8,0.4-1.5,0.6-2.3,0.8S119.1,305.6,118.1,305.6z M117.5,292.9c-1,0-1.8,0.3-2.4,0.9
		c-0.6,0.6-0.9,1.5-1.1,2.7h6.6c0-1.2-0.3-2.1-0.9-2.7S118.5,292.9,117.5,292.9z"/>
	<path d="M140.2,305.4H137v-9c0-1.1-0.2-2-0.7-2.5c-0.5-0.6-1.2-0.8-2.2-0.8c-1.3,0-2.3,0.4-2.9,1.2c-0.6,0.8-0.9,2.1-0.9,3.9v7.3
		h-3.1v-14.6h2.4l0.4,1.9h0.2c0.4-0.7,1.1-1.2,1.9-1.6c0.8-0.4,1.7-0.6,2.7-0.6c3.5,0,5.3,1.8,5.3,5.3V305.4z"/>
	<path d="M156.8,290.8v1.7l-2.5,0.5c0.2,0.3,0.4,0.7,0.6,1.1s0.2,0.9,0.2,1.4c0,1.5-0.5,2.7-1.6,3.6c-1,0.9-2.5,1.3-4.3,1.3
		c-0.5,0-0.9,0-1.3-0.1c-0.7,0.4-1,0.9-1,1.5c0,0.3,0.2,0.6,0.5,0.8c0.3,0.2,0.9,0.3,1.7,0.3h2.5c1.6,0,2.8,0.3,3.7,1
		c0.8,0.7,1.3,1.7,1.3,3c0,1.7-0.7,2.9-2,3.8c-1.4,0.9-3.3,1.3-5.9,1.3c-2,0-3.5-0.4-4.6-1.1c-1-0.7-1.6-1.7-1.6-3
		c0-0.9,0.3-1.7,0.9-2.3c0.6-0.6,1.4-1,2.4-1.3c-0.4-0.2-0.8-0.5-1-0.9c-0.3-0.4-0.4-0.8-0.4-1.2c0-0.5,0.2-1,0.5-1.4
		c0.3-0.4,0.8-0.8,1.4-1.1c-0.8-0.3-1.4-0.9-1.8-1.6s-0.7-1.6-0.7-2.6c0-1.6,0.5-2.8,1.5-3.7c1-0.9,2.4-1.3,4.3-1.3
		c0.4,0,0.8,0,1.3,0.1s0.8,0.1,1,0.2H156.8z M145.3,307.6c0,0.7,0.3,1.2,0.9,1.5c0.6,0.4,1.5,0.5,2.5,0.5c1.7,0,2.9-0.2,3.8-0.7
		c0.8-0.5,1.2-1.1,1.2-1.9c0-0.6-0.2-1.1-0.7-1.4c-0.5-0.3-1.3-0.4-2.5-0.4h-2.4c-0.9,0-1.6,0.2-2.1,0.6S145.3,306.9,145.3,307.6z
		 M146.7,295.5c0,0.9,0.2,1.6,0.7,2.1s1.1,0.7,2,0.7c1.8,0,2.7-1,2.7-2.9c0-1-0.2-1.7-0.7-2.2c-0.4-0.5-1.1-0.8-2-0.8
		c-0.9,0-1.6,0.3-2,0.8C146.9,293.8,146.7,294.5,146.7,295.5z"/>
	<path d="M165.9,305.6c-2.3,0-4-0.7-5.3-2s-1.9-3.1-1.9-5.5c0-2.4,0.6-4.3,1.8-5.6c1.2-1.4,2.8-2,4.9-2c1.9,0,3.5,0.6,4.6,1.8
		c1.1,1.2,1.7,2.8,1.7,4.8v1.7h-9.7c0,1.4,0.4,2.5,1.1,3.3c0.7,0.8,1.7,1.1,3,1.1c0.9,0,1.7-0.1,2.4-0.2c0.7-0.2,1.5-0.4,2.4-0.8
		v2.5c-0.8,0.4-1.5,0.6-2.3,0.8S166.9,305.6,165.9,305.6z M165.3,292.9c-1,0-1.8,0.3-2.4,0.9c-0.6,0.6-0.9,1.5-1.1,2.7h6.6
		c0-1.2-0.3-2.1-0.9-2.7S166.3,292.9,165.3,292.9z"/>
	<path d="M184.9,301.2c0,1.4-0.5,2.5-1.6,3.3c-1,0.8-2.5,1.1-4.5,1.1c-1.9,0-3.5-0.3-4.7-0.9v-2.7c1.7,0.8,3.3,1.2,4.8,1.2
		c1.9,0,2.9-0.6,2.9-1.7c0-0.4-0.1-0.7-0.3-0.9c-0.2-0.2-0.6-0.5-1-0.8c-0.5-0.3-1.2-0.6-2-0.9c-1.7-0.7-2.8-1.3-3.4-2
		c-0.6-0.7-0.9-1.5-0.9-2.5c0-1.2,0.5-2.2,1.5-2.9c1-0.7,2.4-1,4.1-1c1.7,0,3.3,0.3,4.9,1l-1,2.3c-1.6-0.7-2.9-1-4-1
		c-1.6,0-2.5,0.5-2.5,1.4c0,0.5,0.2,0.8,0.6,1.2c0.4,0.3,1.4,0.8,2.8,1.3c1.2,0.5,2.1,0.9,2.6,1.3s1,0.8,1.2,1.3
		C184.8,299.9,184.9,300.5,184.9,301.2z"/>
	<path d="M202.6,293.1H199v12.3h-3.1v-12.3h-2.4v-1.5l2.4-1v-1c0-1.7,0.4-3,1.2-3.8c0.8-0.8,2-1.2,3.7-1.2c1.1,0,2.2,0.2,3.2,0.5
		l-0.8,2.4c-0.8-0.2-1.5-0.4-2.2-0.4c-0.7,0-1.2,0.2-1.5,0.7c-0.3,0.4-0.5,1.1-0.5,2v1h3.6V293.1z"/>
	<path d="M218,298c0,2.4-0.6,4.2-1.8,5.6c-1.2,1.3-2.9,2-5.1,2c-1.4,0-2.6-0.3-3.6-0.9c-1-0.6-1.9-1.5-2.4-2.7s-0.8-2.5-0.8-4
		c0-2.4,0.6-4.2,1.8-5.5c1.2-1.3,2.9-2,5.1-2c2.1,0,3.8,0.7,5,2C217.4,293.9,218,295.7,218,298z M207.4,298c0,3.4,1.2,5.1,3.7,5.1
		c2.5,0,3.7-1.7,3.7-5.1c0-3.3-1.2-5-3.7-5c-1.3,0-2.2,0.4-2.8,1.3C207.7,295.2,207.4,296.4,207.4,298z"/>
	<path d="M229,290.5c0.6,0,1.1,0,1.5,0.1l-0.3,2.9c-0.4-0.1-0.9-0.2-1.4-0.2c-1.2,0-2.2,0.4-3,1.2c-0.8,0.8-1.2,1.9-1.2,3.2v7.6
		h-3.1v-14.6h2.4l0.4,2.6h0.2c0.5-0.9,1.1-1.6,1.9-2.1C227.3,290.8,228.1,290.5,229,290.5z"/>
</g>
<g class="st6">
	<path d="M82.5,342h-3.1v-12.5c0-1.5,0-2.7,0.1-3.5c-0.2,0.2-0.5,0.4-0.7,0.7c-0.3,0.3-1.3,1.1-3,2.4l-1.6-2l5.7-4.5h2.6V342z"/>
	<path d="M108.1,342H97.2v-19.3h10.9v2.7h-7.8v5.3h7.3v2.6h-7.3v6.1h7.8V342z"/>
	<path d="M115.2,334.5l-4.9-7.1h3.5l3.3,5.1l3.4-5.1h3.5l-4.9,7.1l5.2,7.5h-3.5l-3.6-5.5l-3.6,5.5h-3.5L115.2,334.5z"/>
	<path d="M134.3,342.3c-1.8,0-3.3-0.7-4.3-2h-0.2c0.1,1.2,0.2,2,0.2,2.2v6h-3.1v-21.1h2.5c0.1,0.3,0.2,0.9,0.4,2h0.2
		c1-1.5,2.4-2.2,4.4-2.2c1.8,0,3.2,0.7,4.3,2c1,1.3,1.5,3.2,1.5,5.6c0,2.4-0.5,4.2-1.6,5.6C137.5,341.6,136.1,342.3,134.3,342.3z
		 M133.5,329.7c-1.2,0-2.1,0.4-2.7,1.1c-0.6,0.7-0.9,1.9-0.9,3.5v0.5c0,1.8,0.3,3.1,0.8,3.9c0.6,0.8,1.5,1.2,2.8,1.2
		c1.1,0,1.9-0.4,2.5-1.3s0.9-2.1,0.9-3.8c0-1.6-0.3-2.9-0.9-3.7C135.5,330.1,134.6,329.7,133.5,329.7z"/>
	<path d="M146.8,342h-3.1v-20.5h3.1V342z"/>
	<path d="M164.2,334.7c0,2.4-0.6,4.2-1.8,5.6c-1.2,1.3-2.9,2-5.1,2c-1.4,0-2.6-0.3-3.6-0.9c-1-0.6-1.9-1.5-2.4-2.7s-0.8-2.5-0.8-4
		c0-2.4,0.6-4.2,1.8-5.5c1.2-1.3,2.9-2,5.1-2c2.1,0,3.8,0.7,5,2C163.6,330.5,164.2,332.4,164.2,334.7z M153.6,334.7
		c0,3.4,1.2,5.1,3.7,5.1c2.5,0,3.7-1.7,3.7-5.1c0-3.3-1.2-5-3.7-5c-1.3,0-2.2,0.4-2.8,1.3C153.9,331.8,153.6,333.1,153.6,334.7z"/>
	<path d="M175.2,327.1c0.6,0,1.1,0,1.5,0.1l-0.3,2.9c-0.4-0.1-0.9-0.2-1.4-0.2c-1.2,0-2.2,0.4-3,1.2c-0.8,0.8-1.2,1.9-1.2,3.2v7.6
		h-3.1v-14.6h2.4l0.4,2.6h0.2c0.5-0.9,1.1-1.6,1.9-2.1S174.3,327.1,175.2,327.1z"/>
	<path d="M185.8,342.3c-2.3,0-4-0.7-5.3-2c-1.3-1.3-1.9-3.1-1.9-5.5c0-2.4,0.6-4.3,1.8-5.6c1.2-1.4,2.8-2,4.9-2
		c1.9,0,3.5,0.6,4.6,1.8c1.1,1.2,1.7,2.8,1.7,4.8v1.7h-9.7c0,1.4,0.4,2.5,1.1,3.3c0.7,0.8,1.7,1.1,3,1.1c0.9,0,1.7-0.1,2.4-0.2
		s1.5-0.4,2.4-0.8v2.5c-0.8,0.4-1.5,0.6-2.3,0.8C187.7,342.2,186.8,342.3,185.8,342.3z M185.2,329.5c-1,0-1.8,0.3-2.4,0.9
		c-0.6,0.6-0.9,1.5-1.1,2.7h6.6c0-1.2-0.3-2.1-0.9-2.7S186.2,329.5,185.2,329.5z"/>
	<path d="M202.4,327.1c0.6,0,1.1,0,1.5,0.1l-0.3,2.9c-0.4-0.1-0.9-0.2-1.4-0.2c-1.2,0-2.2,0.4-3,1.2c-0.8,0.8-1.2,1.9-1.2,3.2v7.6
		H195v-14.6h2.4l0.4,2.6h0.2c0.5-0.9,1.1-1.6,1.9-2.1C200.7,327.4,201.5,327.1,202.4,327.1z"/>
	<path d="M206.2,340.3c0-0.7,0.2-1.1,0.5-1.5c0.3-0.3,0.8-0.5,1.5-0.5c0.6,0,1.1,0.2,1.4,0.5c0.3,0.4,0.5,0.8,0.5,1.5
		c0,0.6-0.2,1.1-0.5,1.5s-0.8,0.5-1.4,0.5c-0.6,0-1.1-0.2-1.5-0.5C206.4,341.5,206.2,341,206.2,340.3z M209.3,336.1H207l-0.7-13.4
		h3.7L209.3,336.1z"/>
</g>
<g id="Layer_4">
	<polygon class="st7" points="227,111.5 235.6,124 232.3,124 238.9,135.2 235.6,135.2 242.8,147 210.5,147 218.5,135.9 213.2,135.9 
		222.4,124 218.5,124 	"/>
	<polygon class="st7" points="183.1,111.5 191.6,124 188.3,124 194.9,135.2 191.6,135.2 198.9,147 166.6,147 174.5,135.9 
		169.2,135.9 178.5,124 174.5,124 	"/>
	<polygon class="st7" points="77.2,111.5 85.7,124 82.4,124 89,135.2 85.7,135.2 92.9,147 60.7,147 68.6,135.9 63.3,135.9 72.6,124 
		68.6,124 	"/>
	<polygon class="st7" points="30.4,111.5 39,124 35.7,124 42.2,135.2 39,135.2 46.2,147 13.9,147 21.9,135.9 16.6,135.9 25.8,124 
		21.9,124 	"/>
	<polygon class="st8" points="205.2,98.6 216.8,115.6 212.3,115.6 221.3,130.9 216.8,130.9 226.7,147 182.7,147 193.5,131.8 
		186.4,131.8 198.9,115.6 193.5,115.6 	"/>
	<polygon class="st8" points="160.1,98.6 171.8,115.6 167.3,115.6 176.2,130.9 171.8,130.9 181.6,147.1 137.7,147 148.4,131.8 
		141.3,131.8 153.8,115.6 148.4,115.6 	"/>
	<polygon class="st8" points="107.1,98.6 118.8,115.6 114.3,115.6 123.3,130.9 118.8,130.9 128.7,147 84.7,147 95.5,131.8 
		88.3,131.8 100.8,115.6 95.5,115.6 	"/>
	<polygon class="st8" points="46.9,98.6 58.5,115.6 54,115.6 63,130.9 58.5,130.9 68.4,147 24.4,147 35.2,131.8 28.1,131.8 
		40.6,115.6 35.2,115.6 	"/>
	<rect x="130.9" y="143.7" class="st4" width="5.6" height="14.6"/>
	<polygon class="st7" points="132.9,111.5 141.5,124 138.2,124 144.8,135.2 141.5,135.2 148.7,147 116.4,147 124.4,135.9 
		119.1,135.9 128.3,124 124.4,124 	"/>
</g>
</svg>
