<?xml version="1.0" encoding="utf-8"?>
<!-- Generator: Adobe Illustrator 22.1.0, SVG Export Plug-In . SVG Version: 6.00 Build 0)  -->
<svg version="1.1" id="Layer_1" xmlns="http://www.w3.org/2000/svg" xmlns:xlink="http://www.w3.org/1999/xlink" x="0px" y="0px"
	 viewBox="0 0 254 164" style="enable-background:new 0 0 254 164;" xml:space="preserve">
<style type="text/css">
	.st0{fill:#D7D8AF;}
	.st1{fill:#000B28;}
	.st2{fill:#FFFFFF;}
	.st3{fill:#FF5915;}
	.st4{fill:#A82F05;}
	.st5{fill:#003306;}
	.st6{fill:#006A0F;}
</style>
<path class="st0" d="M52.6,104.8l0.6-11.3l17.5-16.3l7.3,7.3l23.7-24.2l7.3,2.3l6.2-4.5l3.9-3.4l5.6,3.4l13.5,11.3l9,5.6l11.3,2.3
	l10.1,5.6l10.7-4.5l12.4,10.1l4.5,3.4l3.9,6.2l17.5,23.7c0,0-42.3,14.1-44.5,13.5s-74.9-3.9-78.9-5.6
	C90.4,127.9,52.6,104.8,52.6,104.8z"/>
<path class="st1" d="M43.3,102.9l9.6-9l15.8,11.3l19.2-9.6l3.1-2.5l18,5.6l14-13.6l26.5,13c0,0,16.1,6.5,17.2,7s10.7,2.3,10.7,2.3
	l9.3-9.3l20.3,9l11.3,14.6l0.3,31.8H43.3V102.9z"/>
<path class="st2" d="M39.4,111.6c-0.8,0-1.6-0.3-2.2-0.9c-1.2-1.2-1.3-3.2-0.1-4.4C38,105.5,57.7,85.2,58.9,84s8.9-7.8,9.7-8.6
	c1.2-1,3-1,4.1,0.1l4.6,4.2c4.8-4.8,14.9-14.8,16.8-16.2c1.4-1,3.8-4,5-5.6c0.9-1.1,2.4-1.6,3.7-1l3.8,1.6l1.6,0.5l2.1-1.7
	c0.1-0.1,0.3-0.2,0.4-0.3l2.5-1.5l3.7-3.7c1-1,2.6-1.2,3.9-0.4l6.2,3.9c0.2,0.1,0.4,0.3,0.6,0.5c0,0,4.3,4.5,6.9,6.4
	c2,1.5,8.8,5.9,9.8,6.5l5.1,2.5L159,73c0.4,0.1,0.8,0.2,1.2,0.5l5,3.3l4.1,2.5L178,75c1.1-0.6,2.5-0.4,3.4,0.4s8.6,7.4,10.3,9.2
	c1,1,4,3.1,5.6,4.1c0.3,0.2,0.6,0.5,0.9,0.8l11,14.9c1,1.4,0.7,3.3-0.7,4.3s-3.3,0.7-4.3-0.7l-10.6-14.5c-1.3-0.8-4.7-3-6.2-4.6
	c-1.1-1.1-5.6-5-8.4-7.5l-8.3,4.1c-0.9,0.5-2.1,0.4-3-0.1l-5.6-3.4l-0.1-0.1l-4.5-3l-9.5-1.6c-0.3-0.1-0.6-0.1-0.9-0.3l-5.6-2.8
	c-0.1,0-0.2-0.1-0.3-0.2c-0.3-0.2-8-5.2-10.3-6.9c-2.7-2-6.4-5.8-7.4-6.8l-3.8-2.4l-2.2,2.2c-0.2,0.2-0.4,0.3-0.6,0.5l-2.6,1.6
	l-3.2,2.7c-0.8,0.7-1.9,0.9-3,0.6l-3.4-1.1c-0.1,0-0.2-0.1-0.2-0.1l-1.8-0.8c-1.3,1.6-3.2,3.7-4.7,4.9c-1.5,1.1-12,11.5-18.3,17.7
	c-1.2,1.2-3.1,1.2-4.3,0.1l-4.7-4.3c-3.1,2.7-6.7,5.9-7.3,6.5c-1.1,1.1-21.5,22-21.7,22.2C41,111.3,40.2,111.6,39.4,111.6z"/>
<path class="st2" d="M112.3,114.1c-0.4,0-0.7-0.1-1.1-0.2l-9-3.4c-0.5-0.2-1-0.6-1.4-1c-3.3-4.3-8.7-11.3-9.8-12.6
	c-0.6-0.4-2.6-1.6-4-2.4c-3.8-2.3-4.6-2.8-5.1-3.2c-0.5-0.5-3.7-2.8-6.4-4.8c-1.4-1-1.7-2.9-0.7-4.3s2.9-1.7,4.3-0.7
	c5.3,3.8,6.6,4.9,7,5.2c0.5,0.4,2.6,1.6,4.1,2.5c4,2.4,4.6,2.8,5.1,3.3s3.8,4.7,9.9,12.6l8.2,3.1c1.6,0.6,2.4,2.4,1.8,4
	C114.8,113.4,113.6,114.1,112.3,114.1z M82,91.2C82,91.3,82,91.3,82,91.2C82,91.3,82,91.3,82,91.2z M86.2,86.8
	C86.3,86.8,86.3,86.9,86.2,86.8C86.3,86.8,86.3,86.8,86.2,86.8z"/>
<path class="st2" d="M132.6,113c-1.7,0-3.1-1.4-3.1-3.1c0-1.4,0.3-1.9,5.1-7.2c2.2-2.4,4.5-4.8,4.8-5.2c1-1,2.1-1.2,6-1.7
	c0.9-0.1,2-0.3,2.8-0.4c1.2-1.2,3.4-3.1,7.9-6.6c0,0,0,0,0.1,0l11.3-8.5c1.4-1,3.3-0.7,4.3,0.6c1,1.4,0.7,3.3-0.6,4.3L160,93.6
	c-2.8,2.2-6,4.9-7,5.8c-0.8,1.5-2.7,1.8-3.5,2c-0.9,0.2-2,0.3-3.1,0.5c-0.9,0.1-2.2,0.3-2.9,0.4c-1.8,1.9-6.9,7.5-7.9,8.8
	C134.9,112.3,133.8,113,132.6,113z"/>
<rect x="202.5" y="143.7" class="st3" width="5.6" height="14.6"/>
<rect x="224.5" y="143.7" class="st4" width="5.6" height="14.6"/>
<rect x="181.6" y="143.7" class="st4" width="5.6" height="14.6"/>
<rect x="157.4" y="143.7" class="st3" width="5.6" height="14.6"/>
<rect x="104.4" y="143.7" class="st3" width="5.6" height="14.6"/>
<rect x="44.7" y="143.7" class="st3" width="5.6" height="14.6"/>
<rect x="27.3" y="143.7" class="st4" width="5.6" height="14.6"/>
<rect x="74.6" y="143.7" class="st4" width="5.6" height="14.6"/>
<g>
	<g>
		<path class="st3" d="M28.8,26.5c6.2-2.8,15.9-3.8,21.1-5.5c1.7-0.6,3.1-1.3,4.5-3c0.1,0,0.1,0,0.2,0.1c-3,6.8-6.4,9.5-10,10.8
			c-1.5,0.5-3,0.8-4.6,1c-1.2,0.9-2,3.1-2.5,6.3c-0.7,4.8-1.4,9.7-2.1,14.5c-0.6,4.3-0.1,5.5,3,4.3c0,0.1,0,0.2-0.1,0.3
			c-5.1,2-10.1,4.1-15.1,6.5c0-0.1,0-0.2,0.1-0.3c3.8-1.8,4.2-4.1,4.9-8.8c0.6-4.1,1.1-8.1,1.7-12.2c0.7-5.1,6.5-9.1,9.7-10.5
			c-6.1,0.6-12.8-0.3-17.7,2c-2.4,1.2-3.9,2.9-3.9,4.9s1.5,2.3,3,1.5c1.2-0.6,2.4-1.7,3.2-3.1c1.5,0.1,2.1,0.9,2.1,2.1
			c0,2.9-2.4,5.6-4.8,6.8c-2.5,1.2-5.2,0.8-5.4-2.8C16.1,34.4,22.8,29.1,28.8,26.5z"/>
		<path class="st3" d="M54,22.3c0.1-0.8-0.5-1.2-1.6-0.5c-0.1,0-0.1-0.1-0.1-0.1c1.4-1.1,4-2.8,5.8-3.3c2.2-0.6,3-0.1,2.5,2.7
			c-1.2,6.5-2.4,13-3.5,19.5c0.1,0,0.1,0,0.2,0c2.5-10.5,6.4-13.9,9.9-14.8c4.8-1.2,4.5,2.9,4.1,5.6c-0.3,1.9-0.6,3.8-0.9,5.6
			c-0.6,3.4-0.9,7.8,0.8,8.1c-0.1,0.1-0.1,0.1-0.1,0.2C66.8,47.2,62,48,63,41.5c0.5-3.3,1-6.6,1.5-9.9c0.3-1.9,0.3-3-0.7-2.8
			c-2.1,0.6-4.8,5.7-6.2,11.8c-0.7,2.8-1.7,7.9-0.4,8.2c-0.1,0.1-0.1,0.1-0.1,0.2c-5.2,2.3-7.8,2.9-6.8-3.6
			C51.5,37.7,52.7,30,54,22.3z"/>
		<path class="st3" d="M93.5,32.9c-0.6,3.4-1,7.7,0.8,8.1c-0.1,0.1-0.1,0.1-0.1,0.2c-0.9,0.3-1.9,0.5-2.8,0.6
			c-3.3,0.5-6.3-0.4-5.1-5.4c0.5-2,1-4.1,1.5-6.1c-0.1,0-0.1,0-0.2,0c-2.5,10-5.5,13-9,13.7c-4.1,0.8-5.5-2.4-5.5-5.9
			c0-6.1,5.5-14.8,12.7-16c3.9-0.6,6.9,2.3,9.8-1.2C94.9,24.9,94.2,28.9,93.5,32.9z M80.2,38.6c0,1.6,0.3,3,1.4,2.8
			c2.4-0.5,5-6.8,6-12.6c0.2-0.8,0.3-1.6,0.5-2.4c0.6-3.2,0.3-4.4-1.6-4.1C83,22.8,80.2,32.3,80.2,38.6z"/>
		<path class="st3" d="M99.4,22.9c0.1-0.8-0.5-1.3-1.6-0.8C97.7,22,97.7,22,97.7,22c1.4-0.8,4.1-1.9,6-2.1c2.3-0.2,3.2,0.6,2.6,3.2
			c-0.7,2.9-1.5,5.9-2.1,8.8c0.1,0,0.1,0,0.2,0c2.6-10,6.6-12.6,10.1-12.7c4.9-0.2,4.6,3.8,4.1,6.4c-0.3,1.8-0.6,3.7-1,5.5
			c-0.6,3.3-1,7.6,0.8,8.2c-0.1,0.1-0.1,0.1-0.1,0.1c-1,0.2-1.9,0.3-2.9,0.4c-3.3,0.1-6-1.1-5.2-6c0.5-3.2,1.1-6.4,1.6-9.6
			c0.3-1.8,0.3-2.9-0.7-2.9c-2.2,0.1-4.9,4.7-6.4,10.5c-0.7,2.8-1.7,7.6-0.5,8.2c-0.1,0.1-0.1,0.1-0.1,0.1c-1.2,0.3-2.4,0.5-3.3,0.6
			c-3.1,0.3-4.5-0.8-3.7-5.6C98,31,98.7,26.9,99.4,22.9z"/>
		<path class="st3" d="M129.3,29.2c2.7-1,6.3-3,6.3-6.5c0-1-0.3-1.5-1-1.5c-2.1-0.1-4.8,4.1-6.4,9.9c-0.7,2.6-1.7,7.4-0.5,8.1
			c-0.1,0.1-0.1,0.1-0.1,0.1c-1.2,0.2-2.4,0.3-3.3,0.3c-3.1,0-4.5-1.2-3.7-6c1.2-7.3,2.5-14.6,3.7-22c0.1-0.8-0.5-1.4-1.6-1
			c-0.1-0.1-0.1-0.1-0.1-0.1c1.4-0.7,4.1-1.5,6-1.5c2.3,0.1,3.1,0.9,2.6,3.5c-1.2,6.1-2.4,12.3-3.7,18.5c0.1,0,0.1,0,0.2,0.1
			c2.7-10,6.8-11.9,10.1-11.8c3.2,0.2,4.7,2,4.7,3.9c0,4.6-9,5.1-13,6c6.5-0.6,8.6,1,9.4,3.5c1.6,4.9,2.9,6.4,4.6,7.2
			c-0.1,0.1-0.1,0.1-0.1,0.1c-1.5,0.2-3,0.3-4.6,0.2c-3.2-0.2-6.3-1.4-7.4-5.8C130.6,31.4,130.5,29.4,129.3,29.2L129.3,29.2z"/>
		<path class="st3" d="M171.9,43.7c-0.8,5.1-4.8,7.9-12.3,6.8c-3.3-0.5-7.8-1.7-7.8-5.2c0-2.1,1.7-3.5,4-3.2
			c1.6,0.2,3.4,1.6,3.2,3.6c-1.5-0.1-2.2,0.8-2.2,1.9c0,1.1,0.8,2.3,3,2.6c3,0.5,4-1.6,4.7-5.1c1-4.6,1.9-9.2,2.8-13.8
			c-0.1,0-0.1-0.1-0.2-0.1c-2.6,9.4-5.2,11.2-9.4,10.6c-5.4-0.7-5.2-4.6-4.8-7.2c0.6-3.7,1.3-7.5,1.9-11.2c0.1-0.7-0.5-1.4-1.6-1.2
			c-0.1-0.1-0.1-0.1-0.1-0.1c1.4-0.5,4.1-1,6-0.7c2.3,0.3,3,1.2,2.6,3.8c-0.7,4-1.4,7.9-2,11.9c-0.3,1.7,0.1,2.9,1.2,3.1
			c2.4,0.3,4.3-3.7,5.7-9.2c0.7-2.5,1.7-7.3,0.5-8.2c0.1-0.1,0.1-0.1,0.1-0.1c5.3,0.6,7.8,1.2,6.9,7.3
			C173.3,34.6,172.6,39.1,171.9,43.7z"/>
		<path class="st3" d="M197.7,38.9c0,6.4-5.7,10.2-12.5,8.4c-5.5-1.4-9.4-5.8-9.4-10.9c0-6.5,5.7-10.8,12.6-8.9
			C193.9,29,197.7,33.8,197.7,38.9z M190.7,32.4c0-2.3-0.5-4.1-2.3-4.6c-4.2-1.1-5.5,10.6-5.5,14.6c0,2.3,0.6,4.1,2.3,4.5
			C189.4,47.6,190.7,36.9,190.7,32.4z"/>
		<path class="st3" d="M218.6,50.1c-0.6,3-0.9,7.2,0.7,8.6c-0.1,0-0.1,0.1-0.1,0.1c-0.8-0.2-1.7-0.5-2.6-0.8c-3.2-1.3-6-3.8-4.8-8.1
			c0.5-1.8,0.9-3.5,1.4-5.4c-0.1-0.1-0.1-0.1-0.2-0.1c-2.5,8.8-5,10.1-9,8.7c-5.2-1.8-5.1-5.6-4.7-8.2c0.6-3.6,1.2-7.2,1.9-10.8
			c0.1-0.7-0.5-1.5-1.6-1.5c-0.1-0.1-0.1-0.1-0.1-0.2c1.4-0.2,4-0.2,5.8,0.5c2.1,0.8,2.9,1.9,2.5,4.3c-0.7,3.8-1.3,7.7-2,11.5
			c-0.3,1.7,0.1,2.9,1.2,3.3c2.3,0.8,4.1-2.9,5.5-8c0.6-2.4,1.7-6.9,0.4-8.1c0.1,0,0.1-0.1,0.1-0.1c5.1,1.6,7.7,2.9,6.6,8.6
			C219.3,46.4,219,48.2,218.6,50.1z"/>
		<path class="st3" d="M229.8,59.6c0,2.3-2,3.2-4,2.3c-1.7-0.8-2.9-2.8-2.9-4.5c0-2.3,2-3.3,4-2.3C228.7,55.9,229.8,57.9,229.8,59.6
			z M233.5,43.1c0,4.5-5.1,5.5-6.1,10.4c-0.1-0.1-0.2-0.1-0.3-0.1c0.5-4.3-2.4-9.2-2.4-13c0-2.8,1.7-4.2,5.4-4.8
			C232.4,38.5,233.5,41.1,233.5,43.1z"/>
	</g>
</g>
<g id="Layer_4">
	<polygon class="st5" points="227,111.5 235.6,124 232.3,124 238.9,135.2 235.6,135.2 242.8,147 210.5,147 218.5,135.9 213.2,135.9 
		222.4,124 218.5,124 	"/>
	<polygon class="st5" points="183.1,111.5 191.6,124 188.3,124 194.9,135.2 191.6,135.2 198.9,147 166.6,147 174.5,135.9 
		169.2,135.9 178.5,124 174.5,124 	"/>
	<polygon class="st5" points="77.2,111.5 85.7,124 82.4,124 89,135.2 85.7,135.2 92.9,147 60.7,147 68.6,135.9 63.3,135.9 72.6,124 
		68.6,124 	"/>
	<polygon class="st5" points="30.4,111.5 39,124 35.7,124 42.2,135.2 39,135.2 46.2,147 13.9,147 21.9,135.9 16.6,135.9 25.8,124 
		21.9,124 	"/>
	<polygon class="st6" points="205.2,98.6 216.8,115.6 212.3,115.6 221.3,130.9 216.8,130.9 226.7,147 182.7,147 193.5,131.8 
		186.4,131.8 198.9,115.6 193.5,115.6 	"/>
	<polygon class="st6" points="160.1,98.6 171.8,115.6 167.3,115.6 176.2,130.9 171.8,130.9 181.6,147.1 137.7,147 148.4,131.8 
		141.3,131.8 153.8,115.6 148.4,115.6 	"/>
	<polygon class="st6" points="107.1,98.6 118.8,115.6 114.3,115.6 123.3,130.9 118.8,130.9 128.7,147 84.7,147 95.5,131.8 
		88.3,131.8 100.8,115.6 95.5,115.6 	"/>
	<polygon class="st6" points="46.9,98.6 58.5,115.6 54,115.6 63,130.9 58.5,130.9 68.4,147 24.4,147 35.2,131.8 28.1,131.8 
		40.6,115.6 35.2,115.6 	"/>
	<rect x="130.9" y="143.7" class="st4" width="5.6" height="14.6"/>
	<polygon class="st5" points="132.9,111.5 141.5,124 138.2,124 144.8,135.2 141.5,135.2 148.7,147 116.4,147 124.4,135.9 
		119.1,135.9 128.3,124 124.4,124 	"/>
</g>
</svg>
