<?xml version="1.0" encoding="utf-8"?>
<!-- Generator: Adobe Illustrator 22.0.1, SVG Export Plug-In . SVG Version: 6.00 Build 0)  -->
<svg version="1.1" id="Layer_1" xmlns="http://www.w3.org/2000/svg" xmlns:xlink="http://www.w3.org/1999/xlink" x="0px" y="0px"
	 viewBox="0 0 129.7 122.3" style="enable-background:new 0 0 129.7 122.3;" xml:space="preserve">
<style type="text/css">
	.st0{fill:#FF750C;}
</style>
<path class="st0" d="M16.8,71.1H5.6L30,35.8L7.1,2.3h11.6l17.4,26.3L53.3,2.3h11L41.6,35.8l23.9,35.3H54L35.7,42.9L16.8,71.1z"/>
<path class="st0" d="M91.4,2.3h10.5l25,68.8h-10.2l-7.2-20.6h-27L75,71.1h-9.6L91.4,2.3z M106.8,42.9L96.2,12.5l-11,30.4H106.8z"/>
<g>
	<g>
		<g>
			<path class="st0" d="M3.4,119.3l7-17.8h1.9l6.8,17.8h-1.7l-2.1-5.6H7.2l-2.1,5.6H3.4z M7.8,112.3h7l-3.5-9.3L7.8,112.3z"/>
			<path class="st0" d="M29.2,101.6h1.7v10.6c0,2.2,0.4,3.8,1.2,4.8c0.8,1,2.2,1.4,3.9,1.4c0.9,0,1.8-0.1,2.4-0.4
				c0.7-0.3,1.2-0.6,1.6-1.2c0.4-0.5,0.7-1.2,0.9-1.9c0.2-0.8,0.3-1.7,0.3-2.7v-10.6h1.7v11.1c0,2.3-0.6,4.1-1.7,5.3
				c-1.1,1.2-2.9,1.8-5.2,1.8c-2.3,0-4-0.6-5.2-1.9c-1.1-1.3-1.7-3-1.7-5.3L29.2,101.6L29.2,101.6L29.2,101.6z"/>
			<path class="st0" d="M55.3,114c0,0.8,0.2,1.5,0.5,2c0.3,0.5,0.7,1,1.1,1.3c0.4,0.4,1,0.6,1.6,0.8c0.6,0.1,1.2,0.2,1.9,0.2
				c0.8,0,1.5-0.1,2.1-0.3c0.6-0.2,1-0.4,1.4-0.8c0.4-0.4,0.6-0.7,0.8-1.2c0.2-0.4,0.3-0.9,0.3-1.4c0-0.7-0.1-1.3-0.4-1.7
				c-0.3-0.4-0.7-0.8-1.2-1c-0.5-0.3-1.1-0.5-1.7-0.7c-0.6-0.2-1.3-0.3-2-0.5c-0.7-0.1-1.3-0.4-2-0.5c-0.6-0.2-1.2-0.5-1.7-0.9
				c-0.5-0.4-0.9-0.8-1.2-1.4s-0.4-1.3-0.4-2.2c0-0.6,0.1-1.2,0.4-1.8c0.3-0.6,0.6-1.1,1.1-1.5c0.5-0.4,1.1-0.8,1.9-1.1
				s1.6-0.4,2.6-0.4s1.9,0.1,2.6,0.4c0.8,0.3,1.4,0.7,1.9,1.2c0.5,0.5,0.9,1,1.1,1.7c0.3,0.6,0.4,1.3,0.4,2.1h-1.6
				c0-0.7-0.1-1.3-0.4-1.8c-0.2-0.5-0.6-0.9-1-1.2s-0.9-0.5-1.4-0.7c-0.5-0.1-1.1-0.2-1.6-0.2c-0.9,0-1.6,0.1-2.2,0.4
				c-0.6,0.2-1,0.5-1.4,0.9c-0.4,0.4-0.6,0.8-0.7,1.3c-0.1,0.4-0.1,0.9-0.1,1.4c0.1,0.6,0.3,1,0.7,1.4s0.8,0.6,1.3,0.9
				c0.5,0.2,1.1,0.4,1.8,0.5c0.6,0.1,1.3,0.3,1.9,0.4c0.7,0.1,1.3,0.4,1.9,0.5c0.6,0.2,1.2,0.5,1.7,0.9c0.5,0.4,0.9,0.8,1.2,1.4
				c0.3,0.6,0.4,1.3,0.4,2.2c0,1.7-0.6,2.9-1.7,3.8c-1.1,0.9-2.7,1.3-4.8,1.3c-0.9,0-1.8-0.1-2.6-0.4c-0.8-0.2-1.5-0.6-2.1-1.1
				c-0.6-0.5-1-1.1-1.3-1.8c-0.3-0.7-0.5-1.6-0.5-2.5L55.3,114L55.3,114L55.3,114z"/>
			<path class="st0" d="M75.7,101.6h12.9v1.4H83v16.3h-1.7V103h-5.6L75.7,101.6L75.7,101.6z"/>
			<path class="st0" d="M99.3,119.3v-17.8h1.7v17.8H99.3z"/>
			<path class="st0" d="M114.8,103.8L114.8,103.8l0,15.5h-1.7v-17.8h1.9l10.3,15.5h0v-15.5h1.7v17.8h-1.9L114.8,103.8z"/>
		</g>
	</g>
</g>
<g id="Layer_2_1_">
	<g>
		<path class="st0" d="M5,95.7V78.1h10.9v1.4H6.5v6.4h8.4v1.4H6.5v7H16v1.4L5,95.7L5,95.7z"/>
		<path class="st0" d="M27.8,87.9L23,95.7h-1.8l5.7-9.1l-5.4-8.6h1.8l4.5,7.4l4.5-7.4h1.8l-5.4,8.6l5.6,9.1h-1.8L27.8,87.9z"/>
		<path class="st0" d="M41.5,95.7V78.1h6c1.1,0,1.9,0.1,2.6,0.4c0.7,0.3,1.3,0.6,1.7,1.1c0.4,0.4,0.7,1,0.9,1.6
			c0.2,0.6,0.2,1.2,0.2,1.9c0,1-0.2,1.8-0.5,2.4c-0.4,0.6-0.9,1.1-1.4,1.5c-0.6,0.4-1.3,0.6-2,0.8c-0.8,0.1-1.5,0.2-2.2,0.2h-3.5
			v7.8L41.5,95.7L41.5,95.7z M46.7,86.5c0.7,0,1.4,0,2-0.1c0.6-0.1,1.1-0.3,1.5-0.5c0.4-0.3,0.7-0.6,0.9-1.1
			c0.2-0.4,0.3-1.1,0.3-1.8c0-1.1-0.4-1.9-1-2.5c-0.7-0.6-1.8-0.9-3.2-0.9h-4v7H46.7z"/>
		<path class="st0" d="M59.4,95.7V78.1h1.5v16.2h8.8v1.4L59.4,95.7L59.4,95.7z"/>
		<path class="st0" d="M74.6,86.9c0-1.3,0.2-2.5,0.5-3.6c0.3-1.1,0.8-2.1,1.4-3s1.4-1.5,2.4-2c0.9-0.5,2-0.7,3.2-0.7
			c1.3,0,2.4,0.2,3.4,0.7c0.9,0.5,1.8,1.1,2.4,2c0.6,0.9,1.1,1.8,1.4,3s0.5,2.3,0.5,3.6c0,1.3-0.2,2.5-0.5,3.6
			c-0.3,1.1-0.8,2.1-1.4,3c-0.6,0.9-1.4,1.5-2.4,2c-0.9,0.5-2.1,0.7-3.3,0.7c-1.3,0-2.4-0.2-3.3-0.7c-0.9-0.5-1.8-1.2-2.4-2
			c-0.6-0.9-1.1-1.8-1.4-3C74.8,89.4,74.6,88.2,74.6,86.9z M82.2,94.8c1.1,0,2-0.2,2.7-0.6c0.8-0.4,1.4-1,1.9-1.7s0.9-1.6,1.1-2.5
			s0.4-1.9,0.4-3c0-1.2-0.1-2.3-0.4-3.3c-0.3-1-0.7-1.8-1.2-2.5c-0.5-0.7-1.2-1.2-1.9-1.6c-0.8-0.4-1.6-0.5-2.6-0.5
			c-1,0-2,0.2-2.7,0.7c-0.8,0.4-1.4,1-1.9,1.8c-0.5,0.7-0.9,1.6-1.1,2.5c-0.2,0.9-0.4,1.9-0.4,3c0,1,0.1,2.1,0.4,3
			c0.2,0.9,0.6,1.8,1.1,2.5c0.5,0.7,1.1,1.3,1.9,1.7C80.2,94.6,81.2,94.8,82.2,94.8z"/>
		<path class="st0" d="M98.3,87.7v8l-1.5,0V78.1h6.4c1.8,0,3.2,0.4,4.1,1.1c0.9,0.7,1.4,1.9,1.4,3.5c0,1.1-0.2,2-0.6,2.6
			s-1.1,1.2-2,1.7c0.5,0.2,0.9,0.4,1.1,0.8c0.3,0.3,0.5,0.7,0.6,1.2c0.1,0.4,0.2,0.9,0.3,1.4c0,0.5,0,0.9,0.1,1.4
			c0,0.7,0,1.2,0.1,1.7c0,0.4,0.1,0.8,0.1,1.1c0,0.3,0.1,0.5,0.2,0.6c0.1,0.1,0.2,0.3,0.3,0.4v0.1l-1.7,0c-0.2-0.3-0.3-0.7-0.4-1.2
			c-0.1-0.5-0.1-1.1-0.2-1.7s-0.1-1.1-0.1-1.7c0-0.5,0-1-0.1-1.3c-0.1-0.5-0.2-0.9-0.4-1.1s-0.4-0.5-0.7-0.6c-0.3-0.1-0.6-0.2-1-0.3
			c-0.4,0-0.7-0.1-1.1-0.1L98.3,87.7L98.3,87.7z M103.2,86.3c0.6,0,1.1,0,1.6-0.2c0.5-0.1,0.9-0.4,1.3-0.6c0.4-0.3,0.7-0.6,0.9-1.1
			c0.2-0.4,0.3-1,0.3-1.6c0-0.7-0.1-1.2-0.3-1.6c-0.2-0.4-0.5-0.8-0.9-1c-0.4-0.2-0.8-0.4-1.3-0.5c-0.5-0.1-1-0.1-1.5-0.1h-4.9v6.8
			L103.2,86.3L103.2,86.3z"/>
		<path class="st0" d="M115.9,95.7V78.1h10.9v1.4h-9.3v6.4h8.4v1.4h-8.4v7h9.6v1.4L115.9,95.7L115.9,95.7z"/>
	</g>
</g>
</svg>
