<?xml version="1.0" encoding="utf-8"?>
<!-- Generator: Adobe Illustrator 22.0.1, SVG Export Plug-In . SVG Version: 6.00 Build 0)  -->
<svg version="1.1" xmlns="http://www.w3.org/2000/svg" xmlns:xlink="http://www.w3.org/1999/xlink" x="0px" y="0px"
	 viewBox="0 0 19.5 7.1" style="enable-background:new 0 0 19.5 7.1;" xml:space="preserve">
<style type="text/css">
	.st0{fill:#F96B0B;}
	.st1{fill:#FFFFFF;}
</style>
<g id="Layer_2">
	<path class="st0" d="M18.7,7.1H0.8c-0.4,0-0.7-0.3-0.7-0.7V0.7C0.1,0.3,0.4,0,0.8,0h17.9c0.4,0,0.7,0.3,0.7,0.7v5.6
		C19.4,6.7,19.1,7.1,18.7,7.1z"/>
	<g>
		<path class="st1" d="M4.8,4.3c0,0.3-0.1,0.5-0.3,0.7C4.2,5.2,3.9,5.3,3.6,5.3c-0.4,0-0.7-0.1-0.9-0.2V4.6C2.8,4.7,3,4.7,3.2,4.7
			c0.2,0,0.3,0.1,0.5,0.1c0.2,0,0.4,0,0.5-0.1c0.1-0.1,0.1-0.2,0.1-0.3c0-0.1,0-0.2-0.1-0.3C4,4,3.8,3.9,3.5,3.8
			C3.2,3.6,3,3.5,2.9,3.4C2.8,3.2,2.7,3,2.7,2.8c0-0.3,0.1-0.5,0.3-0.6C3.2,2,3.5,1.9,3.8,1.9c0.3,0,0.6,0.1,0.9,0.2L4.5,2.6
			C4.3,2.4,4,2.4,3.8,2.4c-0.2,0-0.3,0-0.4,0.1C3.3,2.6,3.2,2.7,3.2,2.8c0,0.1,0,0.2,0.1,0.2c0,0.1,0.1,0.1,0.2,0.2
			c0.1,0.1,0.2,0.1,0.4,0.2c0.2,0.1,0.4,0.2,0.5,0.3C4.5,3.7,4.6,3.8,4.7,4C4.7,4.1,4.8,4.2,4.8,4.3z"/>
		<path class="st1" d="M6.9,5.2L6.8,4.9h0C6.7,5,6.6,5.1,6.5,5.2C6.3,5.2,6.2,5.3,6,5.3C5.7,5.3,5.5,5.2,5.3,5
			C5.2,4.9,5.1,4.7,5.1,4.4V2.8h0.5v1.5c0,0.2,0,0.3,0.1,0.4C5.8,4.8,6,4.8,6.1,4.8c0.2,0,0.4-0.1,0.5-0.2C6.7,4.5,6.8,4.3,6.8,4
			V2.8h0.5v2.4H6.9z"/>
		<path class="st1" d="M9,2.7c0.3,0,0.5,0.1,0.7,0.3S10,3.6,10,4c0,0.4-0.1,0.7-0.3,0.9C9.5,5.1,9.3,5.3,9,5.3
			c-0.3,0-0.5-0.1-0.7-0.3h0L8.1,5.2H7.7V1.8h0.5v0.8c0,0.1,0,0.1,0,0.3s0,0.2,0,0.2h0C8.4,2.8,8.7,2.7,9,2.7z M8.9,3.1
			c-0.2,0-0.4,0.1-0.5,0.2C8.3,3.5,8.3,3.7,8.3,3.9v0c0,0.3,0,0.5,0.1,0.6c0.1,0.1,0.2,0.2,0.5,0.2c0.2,0,0.3-0.1,0.4-0.2
			C9.4,4.5,9.4,4.3,9.4,4C9.4,3.4,9.2,3.1,8.9,3.1z"/>
		<path class="st1" d="M12.3,5.2h-0.5V3.7c0-0.2,0-0.3-0.1-0.4c-0.1-0.1-0.2-0.1-0.3-0.1c-0.2,0-0.3,0.1-0.4,0.2
			c-0.1,0.1-0.1,0.3-0.1,0.6v1.2h-0.5V2.8h0.4l0.1,0.3h0C10.9,3,11,2.9,11.1,2.8c0.1-0.1,0.3-0.1,0.4-0.1c0.4,0,0.6,0.1,0.7,0.4h0
			c0.1-0.1,0.2-0.2,0.3-0.3c0.1-0.1,0.3-0.1,0.5-0.1c0.3,0,0.5,0.1,0.6,0.2c0.1,0.1,0.2,0.4,0.2,0.7v1.6h-0.5V3.7
			c0-0.2,0-0.3-0.1-0.4c-0.1-0.1-0.2-0.1-0.3-0.1c-0.2,0-0.3,0.1-0.4,0.2s-0.1,0.3-0.1,0.6V5.2z"/>
		<path class="st1" d="M14.3,2.1c0-0.1,0-0.2,0.1-0.2c0.1,0,0.1-0.1,0.2-0.1c0.1,0,0.2,0,0.2,0.1C14.9,2,14.9,2,14.9,2.1
			c0,0.1,0,0.2-0.1,0.2s-0.1,0.1-0.2,0.1c-0.1,0-0.2,0-0.2-0.1S14.3,2.2,14.3,2.1z M14.9,5.2h-0.5V2.8h0.5V5.2z"/>
		<path class="st1" d="M16.5,4.8c0.1,0,0.3,0,0.4-0.1v0.4c-0.1,0-0.1,0-0.2,0.1c-0.1,0-0.2,0-0.3,0c-0.5,0-0.7-0.3-0.7-0.8V3.2h-0.3
			V2.9l0.4-0.2l0.2-0.5h0.3v0.5h0.7v0.4h-0.7v1.3c0,0.1,0,0.2,0.1,0.3S16.4,4.8,16.5,4.8z"/>
	</g>
</g>
<g id="Layer_3">
	<g>
		<path class="st1" d="M18.4,0.8c0.1,0,0.2,0.1,0.2,0.2v5.1c0,0.1-0.1,0.2-0.2,0.2H1.1C1,6.2,0.9,6.2,0.9,6.1V1
			c0-0.1,0.1-0.2,0.2-0.2H18.4 M18.4,0.5H1.1C0.8,0.5,0.5,0.7,0.5,1v5.1c0,0.3,0.2,0.5,0.5,0.5h17.4c0.3,0,0.5-0.2,0.5-0.5V1
			C18.9,0.7,18.7,0.5,18.4,0.5L18.4,0.5z"/>
	</g>
</g>
</svg>
