<?xml version="1.0" encoding="utf-8"?>
<!-- Generator: Adobe Illustrator 22.0.1, SVG Export Plug-In . SVG Version: 6.00 Build 0)  -->
<svg version="1.1" xmlns="http://www.w3.org/2000/svg" xmlns:xlink="http://www.w3.org/1999/xlink" x="0px" y="0px"
	 viewBox="0 0 216 360" style="enable-background:new 0 0 216 360;" xml:space="preserve">
<style type="text/css">
	.st0{fill:#D4FFFD;}
	.st1{fill:#823014;}
	.st2{fill:#774939;}
	.st3{fill:#D7D8AF;}
	.st4{fill:#000B28;}
	.st5{fill:#FF5915;}
	.st6{fill:none;stroke:#FFFFFF;stroke-width:11;stroke-linecap:round;stroke-linejoin:round;stroke-miterlimit:10;}
	.st7{fill:#A82F05;}
	.st8{fill:#FFF015;}
	.st9{fill:none;stroke:#FFFFFF;stroke-width:8;stroke-linecap:round;stroke-linejoin:round;stroke-miterlimit:10;}
	.st10{fill:#D46300;}
	.st11{fill:#003306;}
	.st12{fill:#006A0F;}
</style>
<g id="Layer_3">
	<path class="st0" d="M842.6,611H395.4c-15.1,0-27.4-12.2-27.4-27.4V-73.6c0-15.1,12.2-27.4,27.4-27.4h447.3
		c15.1,0,27.4,12.2,27.4,27.4v657.3C870,598.8,857.8,611,842.6,611z"/>
	<path class="st1" d="M798.5,872l-38.8,17.4c0,0,0.1,0,0.2-0.1c1.3-0.5,2.8-0.8,4.3-0.8c6.9,0,12.4,5.5,12.4,12.2
		c0,3.8-1.8,7.2-4.6,9.5l38.4-17.8C810.4,892.5,818.3,875.9,798.5,872z"/>
	<ellipse class="st2" cx="764.2" cy="900.8" rx="12.4" ry="12.2"/>
	<path class="st1" d="M844.3,872l38.8,17.4c0,0-0.1,0-0.2-0.1c-1.3-0.5-2.8-0.8-4.3-0.8c-6.9,0-12.4,5.5-12.4,12.2
		c0,3.8,1.8,7.2,4.6,9.5l-38.4-17.8C832.4,892.5,824.4,875.9,844.3,872z"/>
	<ellipse class="st2" cx="878.6" cy="900.8" rx="12.4" ry="12.2"/>
	<path class="st3" d="M477,116l1-20l31-29l13,13l42-43l13,4l11-8l7-6l10,6l24,20l16,10l20,4l18,10l19-8l22,18l8,6l7,11l31,42
		c0,0-75,25-79,24s-133-7-140-10S477,116,477,116z"/>
	<path class="st4" d="M460.5,112.5l17-16l28,20l34-17L545,95l32,10l25-24l47,23c0,0,28.5,11.5,30.5,12.5s19,4,19,4L715,104l36,16
		l20,26l0.5,56.5h-311V112.5z"/>
	<path class="st5" d="M669.5,851.5v-63c0,0,27-20,46-41c19-21,35-53,35-53s30,52,47,68c17,16,34,33,34,33v56H669.5z"/>
</g>
<g id="Layer_2">
	<path class="st6" d="M453.5,122.5c0,0,36.5-37.5,38.5-39.5s17-15,17-15l12,11c0,0,29-29,33-32s10-11,10-11l7,3l6,2l6-5l5-3l7-7
		l11,7c0,0,7.9,8.2,13,12c4,3,18,12,18,12l10,5l18,3l9,6l10,6l18-9c0,0,15,13,18,16s11,8,11,8l19.5,26.5"/>
	<path class="st6" d="M583,127l-16-6c0,0-17-22-18-23s-15-9-16-10s-12-9-12-9"/>
	<path class="st6" d="M619,125c0-1,15-17,16-18s15-2,15-3s14-12,14-12l20-15"/>
	<rect x="743" y="185" class="st5" width="10" height="26"/>
	<rect x="782.1" y="185" class="st7" width="10" height="26"/>
	<rect x="706" y="185" class="st7" width="10" height="26"/>
	<rect x="663" y="185" class="st5" width="10" height="26"/>
	<rect x="569" y="185" class="st5" width="10" height="26"/>
	<rect x="463" y="185" class="st5" width="10" height="26"/>
	<rect x="432" y="185" class="st7" width="10" height="26"/>
	<rect x="516" y="185" class="st7" width="10" height="26"/>
	<line class="st6" x1="642" y1="855" x2="642" y2="795"/>
	<line class="st6" x1="859.1" y1="855" x2="859.1" y2="795"/>
	<path class="st6" d="M750.1,663v103c0,0-5,36-35,63l14.3,22c0,0,8.7-17,13.7-36c5-19,7-42,7-42"/>
	<path class="st6" d="M642,803c0,0,36-14,60-40s48-72,48-72"/>
	<path class="st6" d="M858.1,803c0,0-36-14-60-40s-48-72-48-72"/>
	<polyline class="st6" points="669.3,788.7 669.3,851 831.1,851 831.1,789.3 	"/>
	<path class="st6" d="M750.1,766c0,0,10,31,19,44c9,13,18,19,18,19l-14,21.7c0,0-12-20.7-15-38.7c-3-18-6-38-6-38"/>
	<path class="st8" d="M824.1,898c10-3,27-9,30-26s-9-30-9-30s-1,9-4,13c-3,4-7,3-10,0c-3-3,3-10,1-19c-2-9-12-8-19-11
		c-7-3-3-28-9-21s-3.8,20.8-5,26c-1,4.3,14,13,6,17c-10.4,5.2-12-11-12-11c-8,7-12.1,22-11,32C785.1,895,824.1,898,824.1,898z"/>
	<path class="st9" d="M795.1,836c0,0-0.5,11.5,6.5,10.5c8-1.1,6-7,1-12c-5-5-11-17,5-29c0,0,4,18,10,18c7,0,13,1,16,8
		c2.1,4.9-3.5,18.5-3.5,21.5s5,7,8,5c3-2,9-10,7-16c0,0,14.5,11.5,9.5,31.5c-5,20-26.5,21.4-37.5,22.5
		C802.6,897.5,758.6,871.5,795.1,836z"/>
</g>
<g id="Layer_5">
	<g>
		<g>
			<path class="st10" d="M441.8-23c11-4.9,28.2-6.7,37.4-9.7c3.1-1,5.5-2.3,8-5.3c0.1,0,0.2,0,0.3,0.1c-5.3,12-11.3,16.8-17.7,19.1
				c-2.6,0.9-5.3,1.5-8.1,1.8c-2.2,1.6-3.6,5.5-4.4,11.2c-1.3,8.6-2.5,17.2-3.8,25.8c-1.1,7.7-0.1,9.7,5.4,7.6c0,0.2,0,0.3-0.1,0.5
				c-9,3.5-18,7.3-26.8,11.5c0-0.2,0-0.3,0.1-0.5c6.8-3.2,7.5-7.2,8.7-15.7c1-7.2,2-14.4,3-21.6c1.2-9.1,11.5-16.1,17.2-18.7
				c-10.9,1.1-22.8-0.6-31.5,3.6c-4.3,2.1-7,5.1-7,8.7c0,3.6,2.6,4.1,5.4,2.7c2.1-1,4.3-3,5.7-5.5c2.7,0.1,3.8,1.6,3.8,3.7
				c0,5.2-4.2,9.9-8.6,12c-4.5,2.2-9.2,1.5-9.6-4.9C419.3-9.1,431.1-18.4,441.8-23z"/>
			<path class="st10" d="M486.5-30.5c0.2-1.4-0.9-2.1-2.8-0.9c-0.1,0-0.1-0.1-0.2-0.1c2.4-1.9,7.1-4.9,10.3-5.8
				c3.9-1.1,5.4-0.1,4.5,4.8C496.2-21,494.1-9.4,492,2.2c0.1,0,0.2,0,0.3,0c4.5-18.7,11.3-24.7,17.5-26.2c8.6-2.1,8,5.1,7.2,10
				c-0.5,3.3-1.1,6.7-1.6,10c-1,6.1-1.6,13.8,1.4,14.3c-0.1,0.1-0.1,0.2-0.2,0.3c-7.4,3.1-15.8,4.5-14-7c0.9-5.9,1.8-11.7,2.7-17.6
				c0.5-3.3,0.5-5.3-1.2-4.9c-3.8,1-8.5,10.1-11,21c-1.2,5-3,14.1-0.7,14.6c-0.1,0.1-0.1,0.2-0.2,0.3c-9.2,4.1-13.9,5.2-12-6.4
				C482.2-3.2,484.3-16.8,486.5-30.5z"/>
			<path class="st10" d="M556.7-11.6c-1,6-1.7,13.7,1.4,14.4C558,3,557.9,3,557.9,3.1c-1.6,0.5-3.3,0.9-4.9,1.1
				c-5.9,0.8-11.1-0.7-9-9.6c0.9-3.6,1.7-7.3,2.6-10.9c-0.1,0-0.2,0-0.3,0C541.8,1.4,536.5,6.8,530.3,8c-7.2,1.4-9.8-4.3-9.8-10.5
				c0-10.8,9.8-26.3,22.5-28.4c6.9-1.1,12.3,4,17.4-2.2C559.1-25.9,557.9-18.7,556.7-11.6z M533-1.5c0,2.8,0.6,5.3,2.4,4.9
				c4.2-0.8,8.8-12.1,10.6-22.4c0.3-1.4,0.5-2.8,0.8-4.3c1-5.7,0.5-7.8-2.9-7.2C538.1-29.6,533-12.7,533-1.5z"/>
			<path class="st10" d="M567.2-29.5c0.2-1.4-0.9-2.3-2.9-1.5c-0.1-0.1-0.1-0.1-0.2-0.2c2.4-1.4,7.3-3.4,10.7-3.7
				c4-0.3,5.6,1,4.6,5.7c-1.3,5.2-2.6,10.4-3.8,15.7c0.1,0,0.2,0,0.3,0c4.7-17.8,11.7-22.4,17.9-22.6c8.7-0.3,8.2,6.7,7.3,11.4
				c-0.6,3.2-1.1,6.5-1.7,9.7c-1,5.9-1.7,13.5,1.4,14.6c-0.1,0.1-0.1,0.1-0.2,0.2c-1.7,0.4-3.4,0.6-5.1,0.7
				c-5.8,0.2-10.6-1.9-9.2-10.6c0.9-5.7,1.9-11.4,2.8-17c0.5-3.2,0.5-5.2-1.2-5.1c-3.9,0.2-8.7,8.4-11.3,18.7
				C575.4-8.6,573.5,0,575.8,1c-0.1,0.1-0.1,0.1-0.2,0.2c-2.2,0.5-4.2,0.9-5.9,1.1c-5.5,0.6-8-1.4-6.5-10
				C564.6-15,565.9-22.3,567.2-29.5z"/>
			<path class="st10" d="M620.2-18.2c4.8-1.7,11.1-5.4,11.1-11.6c0-1.8-0.5-2.6-1.7-2.7c-3.7-0.2-8.6,7.3-11.3,17.6
				c-1.2,4.7-3.1,13.2-0.8,14.3c-0.1,0.1-0.1,0.1-0.2,0.2c-2.2,0.3-4.2,0.5-5.9,0.5c-5.5,0-7.9-2.2-6.5-10.6c2.2-13,4.4-26,6.6-39
				c0.2-1.4-0.9-2.4-2.9-1.8c-0.1-0.1-0.1-0.1-0.2-0.2c2.4-1.2,7.3-2.7,10.7-2.6c4,0.1,5.5,1.6,4.6,6.2c-2.2,10.9-4.3,21.8-6.5,32.8
				c0.1,0,0.2,0,0.3,0.1c4.8-17.8,12-21.2,18-20.9c5.6,0.3,8.3,3.6,8.3,7c0,8.2-16,9-23.1,10.6c11.5-1.1,15.2,1.8,16.7,6.2
				c2.8,8.7,5.1,11.4,8.1,12.8c-0.1,0.1-0.1,0.1-0.2,0.2c-2.6,0.3-5.4,0.6-8.2,0.4C631.4,1,626-1.2,624-9c-1.4-5.4-1.7-8.9-3.8-9.1
				C620.2-18.1,620.2-18.2,620.2-18.2z"/>
			<path class="st10" d="M695.8,7.5c-1.5,9-8.6,14-21.8,12c-5.8-0.9-13.8-3-13.8-9.2c0-3.8,3.1-6.2,7.1-5.7c2.8,0.4,6,2.8,5.6,6.4
				c-2.6-0.1-3.9,1.5-3.9,3.3c0,2,1.5,4.1,5.3,4.7c5.4,0.8,7.1-2.8,8.3-9c1.7-8.2,3.3-16.3,5-24.5c-0.1,0-0.2-0.1-0.3-0.1
				c-4.6,16.6-9.2,19.9-16.6,18.8c-9.6-1.3-9.3-8.2-8.5-12.8c1.1-6.6,2.3-13.3,3.4-19.9c0.2-1.3-0.9-2.5-2.9-2.1
				c-0.1-0.1-0.1-0.2-0.2-0.2c2.4-0.9,7.3-1.7,10.6-1.2c4,0.6,5.3,2.2,4.6,6.7c-1.2,7.1-2.4,14.1-3.6,21.2c-0.6,3.1,0.1,5.2,2.2,5.5
				c4.2,0.6,7.6-6.6,10.2-16.3c1.2-4.5,3.1-12.9,0.8-14.5c0.1-0.1,0.1-0.1,0.2-0.2c9.4,1,13.9,2.2,12.2,12.9
				C698.4-8.7,697.1-0.6,695.8,7.5z"/>
			<path class="st10" d="M741.6-1.1c0,11.3-10.1,18.1-22.2,14.9c-9.8-2.5-16.6-10.3-16.6-19.3c0-11.6,10.1-19.2,22.4-15.8
				C734.9-18.6,741.6-10,741.6-1.1z M729.2-12.5c0-4-0.9-7.3-4.1-8.2c-7.5-2-9.8,18.9-9.8,26c0,4,1,7.2,4.1,8
				C727,14.4,729.2-4.5,729.2-12.5z"/>
			<path class="st10" d="M778.8,18.8c-1.1,5.4-1.6,12.8,1.3,15.2c-0.1,0-0.1,0.1-0.2,0.1c-1.5-0.3-3.1-0.8-4.7-1.5
				c-5.6-2.3-10.6-6.7-8.6-14.4c0.8-3.2,1.6-6.3,2.4-9.5c-0.1-0.1-0.2-0.1-0.3-0.2c-4.4,15.7-8.8,18-15.9,15.5
				c-9.2-3.2-9-10-8.3-14.5c1.1-6.4,2.2-12.8,3.3-19.2c0.2-1.3-0.9-2.7-2.8-2.7c-0.1-0.1-0.1-0.2-0.2-0.3c2.4-0.4,7.1-0.3,10.3,0.9
				c3.8,1.4,5.1,3.3,4.4,7.7c-1.2,6.8-2.3,13.7-3.5,20.5c-0.5,3,0.1,5.2,2.1,5.9c4.1,1.5,7.3-5.1,9.8-14.2c1.1-4.2,3-12.3,0.7-14.3
				c0.1,0,0.1-0.1,0.2-0.1c9,2.9,13.6,5.2,11.7,15.3C780,12.2,779.4,15.5,778.8,18.8z"/>
			<path class="st10" d="M798.7,35.8c0,4.1-3.5,5.7-7.1,4c-3-1.4-5.1-4.9-5.1-8c0-4,3.5-5.9,7.1-4.1
				C796.6,29.1,798.7,32.7,798.7,35.8z M805.2,6.4c0,7.9-9,9.8-10.9,18.5c-0.2-0.1-0.3-0.2-0.5-0.2c0.8-7.7-4.2-16.3-4.2-23
				c0-5,3.1-7.4,9.6-8.6C803.3-1.7,805.2,2.8,805.2,6.4z"/>
		</g>
	</g>
	<text transform="matrix(1 0 0 1 418.6597 277)"><tspan x="0" y="0" style="font-family:'OpenSans-SemiBold'; font-size:48px;">Your donation just </tspan><tspan x="41.1" y="65" style="font-family:'OpenSans-SemiBold'; font-size:48px;">funded 2 years </tspan><tspan x="77.9" y="130" style="font-family:'OpenSans-SemiBold'; font-size:48px;">of Saturday </tspan><tspan x="50.5" y="195" style="font-family:'OpenSans-SemiBold'; font-size:48px;">challenges for </tspan><tspan x="93.1" y="260" style="font-family:'OpenSans-SemiBold'; font-size:48px;">1 Explorer!</tspan></text>
</g>
<g id="Layer_4">
	<polygon class="st11" points="786.6,127.8 801.8,150 795.9,150 807.6,169.9 801.8,169.9 814.6,190.9 757.3,190.9 771.4,171.1 
		762,171.1 778.4,150 771.4,150 	"/>
	<polygon class="st11" points="708.6,127.8 723.8,150 717.9,150 729.6,169.9 723.8,169.9 736.6,190.9 679.3,190.9 693.4,171.1 
		684,171.1 700.4,150 693.4,150 	"/>
	<polygon class="st11" points="520.6,127.8 535.8,150 529.9,150 541.6,169.9 535.8,169.9 548.6,190.9 491.3,190.9 505.4,171.1 
		496,171.1 512.4,150 505.4,150 	"/>
	<polygon class="st11" points="437.6,127.8 452.8,150 446.9,150 458.6,169.9 452.8,169.9 465.6,190.9 408.3,190.9 422.4,171.1 
		413,171.1 429.4,150 422.4,150 	"/>
	<polygon class="st12" points="747.8,105 768.5,135.2 760.5,135.2 776.4,162.3 768.5,162.3 786,190.9 708,190.9 727.1,163.9 
		714.4,163.9 736.6,135.2 727.1,135.2 	"/>
	<polygon class="st12" points="667.8,105 688.5,135.2 680.5,135.2 696.4,162.3 688.5,162.3 705.9,191 628,190.9 647.1,163.9 
		634.4,163.9 656.7,135.2 647.1,135.2 	"/>
	<polygon class="st12" points="573.8,105 594.5,135.2 586.5,135.2 602.4,162.3 594.5,162.3 612,190.9 534,190.9 553.1,163.9 
		540.4,163.9 562.6,135.2 553.1,135.2 	"/>
	<polygon class="st12" points="466.8,105 487.5,135.2 479.5,135.2 495.4,162.3 487.5,162.3 505,190.9 427,190.9 446.1,163.9 
		433.4,163.9 455.6,135.2 446.1,135.2 	"/>
	<rect x="616" y="185" class="st7" width="10" height="26"/>
	<polygon class="st11" points="619.6,127.8 634.8,150 628.9,150 640.6,169.9 634.8,169.9 647.6,190.9 590.3,190.9 604.4,171.1 
		595,171.1 611.4,150 604.4,150 	"/>
</g>
</svg>
